<?xml version="1.0" encoding="UTF-8" standalone="no"?>
<!-- Created with Inkscape (http://www.inkscape.org/) -->

<svg
   width="64"
   height="64"
   viewBox="0 0 64 64"
   version="1.1"
   id="svg1"
   xml:space="preserve"
   xmlns="http://www.w3.org/2000/svg"
   xmlns:svg="http://www.w3.org/2000/svg"><defs
     id="defs1" /><g
     id="layer1"><path
       style="fill:#3a1a5b;fill-opacity:1;stroke-width:0.434224"
       d="m 32.026916,0.73830493 c -17.356846,0 -31.43885539,14.08201007 -31.43885539,31.43885507 0,17.356847 14.08200939,31.438857 31.43885539,31.438857 17.35683,0 31.43885,-14.08201 31.43885,-31.438857 0,-17.356845 -14.08202,-31.43885507 -31.43885,-31.43885507 z"
       id="path11-1" /><path
       style="fill:#ffffff;stroke-width:0.434224"
       d="m 32.026486,1.8225931 c 16.77087,0 30.355,13.5832609 30.355,30.3541399 0,16.770883 -13.58413,30.354991 -30.355,30.354991 -16.770872,0 -30.3541414,-13.584108 -30.3541414,-30.354991 0,-16.770879 13.5832694,-30.3541399 30.3541414,-30.3541399 z"
       id="path12-6" /><path
       style="fill:#3a1a5b;fill-opacity:1;stroke-width:0.434224"
       d="m 16.858039,11.467569 c -3.251856,8.471302 -5.920629,17.317226 -5.716153,27.686036 v 0.01263 l 0.831345,12.088752 c 0.02848,0.34252 0.100369,0.650294 0.485744,0.707295 12.97988,1.685711 26.232681,1.779217 39.834981,-0.231532 0.27373,-0.05984 0.44263,-0.231955 0.46322,-0.562993 l 0.077,-10.792988 c 0.53018,-9.906346 -1.27352,-19.598791 -6.51845,-28.902208 -0.12013,-0.22541 -0.29643,-0.327341 -0.54447,-0.27139 -8.83392,1.184299 -18.267891,1.182882 -28.339078,-0.07717 -0.250299,-0.01802 -0.467598,0.03813 -0.574158,0.343479 z m 28.671527,0.848092 c 5.01042,9.028379 6.73956,18.389075 6.21992,28.026126 l -8.7e-4,0.01263 -0.0737,10.353534 C 38.493086,52.611142 25.642955,52.530356 13.039122,50.9293 L 12.227424,39.132402 v -0.0017 c -0.197218,-10.016249 2.233607,-18.437495 5.39812,-26.73872 11.728491,1.336455 18.670772,1.124119 27.904022,-0.07628 z"
       id="path13" /></g></svg>
