<?xml version="1.0" encoding="UTF-8" standalone="no"?>
<!-- Created with Inkscape (http://www.inkscape.org/) -->

<svg
   width="900"
   height="204"
   viewBox="0 0 238.125 53.974999"
   version="1.1"
   id="svg1"
   xml:space="preserve"
   xmlns="http://www.w3.org/2000/svg"
   xmlns:svg="http://www.w3.org/2000/svg"><defs
     id="defs1" /><g
     id="layer1"><path
       id="rect9"
       style="opacity:1;fill:#ffffff;fill-opacity:1;stroke-width:1.29646"
       d="M 0.26458333,7.997163 V 33.54205 H 12.26686 C 20.983831,31.766718 23.148732,26.099821 23.174267,20.520061 23.199801,14.940304 20.116853,8.8824098 12.26686,7.997163 Z m 7.01596127,6.178524 h 4.1760074 c 2.969889,0.454415 4.50122,3.564384 4.491559,6.428582 -0.0097,2.86421 -1.193665,5.772979 -4.491559,6.684283 H 7.2805446 Z m 93.2929254,0.491386 v 18.829788 h 7.02783 V 23.038303 c 1.18766,-3.662403 5.24533,-3.246487 5.24816,-0.340294 v 10.798852 h 7.02836 V 20.92163 c 8.8e-4,-3.156776 -1.60461,-6.529041 -5.31806,-6.527265 -3.71346,0.0018 -5.39972,0.549536 -7.78133,3.068226 v -2.795518 z m -39.338615,6.125367 2.738182,-4.128912 c -2.726804,-1.27412 -5.008766,-2.228086 -8.693727,-2.245945 -3.68496,-0.01786 -7.939848,2.396487 -8.054815,6.284114 -0.114967,3.88763 3.705879,4.658476 6.389089,5.376662 2.683211,0.718175 4.539365,1.433568 4.289817,2.245948 -0.249548,0.81238 -2.201012,0.740164 -3.924726,0.408346 -1.723714,-0.331808 -3.503583,-0.933491 -5.042817,-1.769529 l -2.441546,4.491897 c 2.726297,1.284426 6.00573,2.49932 10.245363,2.359369 4.239635,-0.139941 7.609363,-1.625127 7.895088,-5.716945 0.285725,-4.091818 -3.623125,-5.40966 -6.252178,-6.102628 -2.629055,-0.692965 -4.824003,-1.146691 -4.636397,-2.118887 0.187608,-0.972195 2.333572,-0.880666 3.472669,-0.626161 1.139097,0.254506 2.703373,0.924886 4.015998,1.542671 z M 84.94262,14.442689 c -0.263988,0.0021 -0.53956,0.0122 -0.827355,0.0303 -4.604709,0.289468 -7.771927,4.121073 -7.906314,9.432348 -0.134398,5.311292 2.994522,9.243972 6.905955,9.593069 3.911423,0.349096 5.404801,-0.90111 6.969996,-2.50263 0.395669,2.039605 0.05187,5.177293 -3.904357,5.32566 -3.956236,0.148367 -4.638449,-0.920893 -6.163818,-2.085181 l -3.646645,3.657409 c 2.676996,2.391702 5.007404,4.405065 12.008472,3.474623 7.001057,-0.930441 8.730272,-6.57215 8.708885,-8.158964 V 14.601349 h -5.873066 v 2.758848 C 90.256867,16.103135 88.902384,14.410804 84.94262,14.442689 Z m 1.827715,5.827827 c 1.505411,0 2.629875,0.995248 3.420443,2.271057 v 3.962411 c -0.70545,1.163742 -2.061832,1.77405 -3.346078,1.775044 -2.108454,-2.78e-4 -3.658687,-1.763171 -3.658528,-4.049698 9e-5,-2.286322 1.47589,-3.958532 3.584163,-3.958814 z M 66.939403,14.621751 h 6.754183 V 33.54215 h -6.754183 z m 0,-7.30499 h 6.754183 v 5.671583 h -6.754183 z m 124.698517,7.059691 c -3.37269,-0.0077 -6.33449,0.982466 -8.42226,2.663343 l 2.03275,3.689246 c 1.89021,-1.012203 4.01494,-1.597491 5.75995,-1.623576 2.34182,-0.03501 3.83229,1.051017 3.30785,2.810707 -1.22693,-0.974146 -3.13019,-1.001281 -5.29205,-0.866215 -2.16185,0.135065 -6.60342,2.478635 -6.61519,6.609323 -0.0118,4.130678 3.9261,6.177645 6.5181,6.191874 2.592,0.01421 4.31805,-1.076245 6.51862,-3.112113 0.43823,2.009389 1.92902,3.12346 4.03398,3.080278 1.18323,-0.0929 2.36634,-0.143131 3.54957,-0.481636 v -5.518202 c -0.87288,-0.217731 -1.62838,-0.602439 -1.90415,-1.668251 v -4.555974 c -0.0482,-2.051056 -0.41614,-3.766844 -2.12984,-5.13311 -1.7137,-1.366266 -3.98465,-2.077966 -7.35733,-2.085694 z m 0.4493,10.350937 a 2.0360177,2.9706914 78.248896 0 1 2.55437,1.764781 2.0360177,2.9706914 78.248896 0 1 -2.93809,2.376827 2.0360177,2.9706914 78.248896 0 1 -2.93808,-1.741152 2.0360177,2.9706914 78.248896 0 1 2.93808,-2.376837 2.0360177,2.9706914 78.248896 0 1 0.38372,-0.02365 z M 35.139311,14.298652 c -5.792176,2e-6 -10.487533,3.9071 -10.487533,9.801538 0,6.054844 4.469475,9.801529 10.487533,9.801529 4.592217,0 7.968037,-2.087139 9.526945,-5.352875 l -5.073603,-1.448999 c -0.584254,-0.178453 -0.878114,-0.137834 -1.009134,0.148397 -0.45931,0.965158 -1.406732,1.643867 -3.26138,1.651816 -1.854648,0.0079 -3.327249,-1.126134 -3.409599,-2.939075 h 13.559884 c 0.100409,-0.598047 0.154426,-1.21852 0.154426,-1.860793 0,-5.669858 -4.017688,-9.80154 -10.487539,-9.801538 z m -0.09244,4.908729 a 3.0698116,2.8103378 0 0 1 3.057894,2.5663 h -6.108552 a 3.0698116,2.8103378 0 0 1 3.050658,-2.5663 z M 170.75942,14.344617 c -5.79218,2e-6 -10.48753,3.907099 -10.48753,9.801537 0,6.054844 4.46947,9.80153 10.48753,9.80153 4.59222,0 7.96804,-2.087139 9.52695,-5.352875 l -5.07361,-1.448999 c -0.58425,-0.178454 -0.87811,-0.137835 -1.00913,0.148396 -0.45931,0.965158 -1.40673,1.643867 -3.26138,1.651816 -1.85465,0.0079 -3.32725,-1.126134 -3.4096,-2.939074 h 13.55988 c 0.10041,-0.598048 0.15443,-1.218521 0.15443,-1.860794 0,-5.669858 -4.01769,-9.801539 -10.48754,-9.801537 z m -0.0924,4.908725 a 3.0698116,2.8103378 0 0 1 3.05789,2.566298 h -6.10855 a 3.0698116,2.8103378 0 0 1 3.05066,-2.566298 z M 120.79031,7.9066069 h 7.6669 l 5.79582,17.6045961 1.57119,-5.291164 -4.21811,-12.3134321 h 6.61728 l 2.23618,7.9402151 2.41873,-7.9402151 h 6.43473 l -4.23578,12.6601511 1.77141,4.717583 5.61328,-17.3777341 h 7.75818 L 150.04321,33.496791 h -5.79582 l -3.78782,-8.711553 -3.51399,8.711553 h -6.02401 z m 96.66634,-3.7501014 5.05616,-2.2383414 c 0.32808,-0.1442432 0.28471,-0.3177582 0.0471,-0.5259048 -1.20238,-1.06104014 -2.48836,-1.47207402 -3.98226,-0.80199465 -1.37347,0.61606245 -1.77208,1.87268985 -1.81457,3.12692465 -0.0375,0.4855372 0.17197,0.6593921 0.69362,0.4393162 z m 6.03275,9.9370275 c -1.0118,0.0098 -1.85719,0.365127 -2.71188,0.700366 -2.80479,-1.29651 -5.78201,-1.048649 -9.22894,3.400678 l 0.016,-3.609658 h -6.11528 v 18.672669 h 3.88422 c 0.87459,0.867118 1.94468,1.661255 3.3001,2.349106 -1.13831,-0.422356 -2.22421,-0.900931 -3.26188,-1.431035 -1.39785,-0.821054 -1.96234,-0.747706 -0.27373,0.418988 2.25456,1.418276 5.18231,2.615583 7.68838,2.633567 0.66034,0.005 0.98052,-0.06916 0.26908,-0.529895 -0.25907,-0.167782 -0.44655,-0.374642 -0.56552,-0.660317 0.59293,0.317957 1.17612,0.645085 1.91654,0.816404 0.17194,3.646609 1.09229,6.499319 2.16754,9.187943 -0.24953,-2.903673 -0.61338,-5.820133 -0.34188,-8.666255 0.24988,-0.229356 0.52566,-0.223981 0.82115,-0.04521 0.71521,5.764291 -0.0473,11.014426 -0.47927,16.379532 1.65703,-5.189167 3.55109,-10.353493 2.44178,-15.83526 1.26179,0.03696 2.56299,0.184843 3.65129,-0.267004 0.60478,-0.211819 0.68442,-0.687641 0.0739,-0.669558 -1.93545,-0.06319 -3.56942,-0.368889 -4.86599,-0.946309 3.78691,0.618377 7.41704,0.530332 10.93891,-0.0473 2.76008,-0.462538 2.70288,-0.570445 -0.0667,-0.450307 -4.12651,0.02116 -7.98286,-0.381806 -11.44297,-1.407923 7.52169,1.50494 12.02253,0.653759 15.82813,-0.386636 1.21375,-0.331817 0.72383,-0.721742 -0.11981,-0.622321 -1.45162,0.171121 -2.90224,0.24132 -4.32217,0.192036 0.60731,-0.133333 1.15776,-0.314717 1.65368,-0.524241 1.77165,-0.734123 0.91449,-1.452129 -0.44363,-1.104463 -1.3575,0.184186 -2.54219,0.121688 -3.99371,-0.03855 l 0.73646,-0.241846 c 1.81758,-0.733646 0.60027,-1.005221 -0.54124,-0.936562 -2.66598,-0.09111 -5.366,-0.334928 -7.17761,-1.192259 0.77262,0.143101 1.57685,0.246894 2.38445,0.278292 3.22653,-0.03736 2.01094,-0.591042 0.22258,-1.057733 -1.61616,-0.474164 -3.14806,-1.011183 -4.34127,-1.739106 1.29075,0.445667 2.76692,0.689748 4.1409,0.813841 1.4745,0.11512 1.48656,-0.517962 0.16216,-1.000233 -1.74742,-0.682504 -3.16999,-1.558973 -4.7911,-2.41226 1.00555,0.162248 1.62093,0.107271 2.32557,0.130422 1.01306,0.03329 1.33885,-0.178076 0.30935,-0.518081 -0.91781,-0.303122 -1.74305,-0.740422 -2.48928,-1.255939 0.78329,0.189959 1.40309,0.296723 1.91809,0.350179 1.80419,0.186164 1.14841,-0.396344 0.3233,-0.725008 -1.0854,-0.467378 -1.99561,-0.979927 -2.81827,-1.514721 0.99761,0.08562 1.89776,0.251982 2.6685,0.388178 0.46999,0.0209 0.89611,-0.03625 0.98435,-0.690096 l 1.53282,-5.004744 c 0.11741,-0.482747 -0.026,-0.805755 -0.46791,-0.946315 -0.54533,-0.172488 -1.03933,-0.239628 -1.49924,-0.235167 z m -5.36075,6.46093 c 1.1153,0.565145 2.2238,1.143327 3.54078,1.463375 l -1.90879,-0.429257 c -1.35216,-0.344088 -1.64165,0.181324 -0.38114,0.87135 0.95445,0.52887 2.01482,0.972082 3.08887,1.349904 -0.7976,-0.0462 -1.56568,-0.188638 -2.31885,-0.379968 -1.26876,-0.39374 -0.912,0.351889 -0.25254,0.850296 1.32952,1.038865 3.03351,1.992269 4.98993,2.615077 -1.55939,-0.09648 -3.18313,-0.56965 -4.74566,-1.10651 -1.66957,-0.647311 -1.37241,0.128703 -0.77363,0.538619 1.39155,0.828973 2.95058,1.630811 4.46987,2.292112 -1.9364,-0.616996 -3.88246,-1.21705 -5.56784,-2.291596 -0.53977,-0.322925 -1.13242,0.122762 -0.68482,0.680856 0.39696,0.521071 0.99072,0.944371 1.55194,1.383788 -1.05205,-0.370539 -1.69617,-0.741118 -2.23623,-1.111657 -0.56536,-0.450764 -1.2323,0.284502 -0.95853,0.771224 0.30831,0.492704 0.78035,0.931316 1.34638,1.338609 -0.74431,-0.238656 -1.26836,-0.520078 -1.79724,-1.015634 -0.52722,-0.573535 -1.3979,0.278083 -0.88985,0.885212 1.52137,1.689564 4.00521,2.954873 7.93525,4.41837 -2.58899,-0.492705 -5.06041,-1.581836 -7.38367,-2.848706 -1.90314,-1.437692 -3.94824,-1.697045 -0.4519,0.70653 2.89896,2.084993 6.17837,3.435843 11.73734,4.115416 -8.33977,-0.500772 -10.86294,-2.92879 -14.42184,-5.013982 v -7.871422 c 2.17419,-1.521292 4.25404,-2.084911 6.11217,-2.212006 z m -6.11217,12.302618 c 0.67064,0.454739 1.37868,0.870914 2.22589,1.30883 -0.85335,-0.291596 -1.56705,-0.609036 -2.22589,-0.949916 z m -3.1142,-28.0412769 c 3.09445,2.7054887 6.72381,3.2006102 10.32633,0.064168 3.60252,-3.1364436 8.84808,-4.6733878 10.61676,-2.4383333 1.76867,2.2350545 -1.95809,6.9008928 -7.22844,8.7266632 -0.75257,0.245742 -1.05462,-0.292527 -0.64539,-0.609584 0.68585,-0.465046 1.18349,-1.2891238 1.21289,-2.495047 0.0294,-1.2059233 -1.05255,-2.6529592 -2.91569,-2.6136508 -1.86315,0.039307 -2.82712,1.6751691 -2.78074,2.8080984 0.0464,1.1329282 0.75475,2.0907334 1.85112,2.4950474 0.52256,0.139474 0.29572,1.171017 -0.53002,1.313468 -6.62958,0.699528 -8.71926,-2.8889164 -10.26179,-6.9941618 z m -33.46989,40.6315379 1.44531,0.175353 c -0.22793,0.828506 -0.65014,1.471485 -1.26659,1.928946 -0.61645,0.45746 -1.40386,0.68619 -2.36223,0.68619 -1.20701,0 -2.16537,-0.363424 -2.87506,-1.090284 -0.70453,-0.731927 -1.0568,-1.756116 -1.0568,-3.072577 0,-1.362207 0.35745,-2.419434 1.07233,-3.1717 0.71489,-0.752266 1.64216,-1.128389 2.78183,-1.128389 1.1034,0 2.00477,0.368512 2.70413,1.105516 0.69934,0.737014 1.04901,1.773912 1.04901,3.110712 0,0.08138 -0.003,0.203304 -0.008,0.365958 h -6.15422 c 0.0519,0.889505 0.3082,1.570598 0.76928,2.043301 0.46105,0.472703 1.03607,0.709064 1.72505,0.709064 0.51285,0 0.95059,-0.132151 1.3132,-0.396463 0.36262,-0.264311 0.65013,-0.68618 0.86253,-1.265627 z m -4.59235,-2.218664 h 4.60789 c -0.0622,-0.681094 -0.2383,-1.191931 -0.52839,-1.532483 -0.44552,-0.528613 -1.02311,-0.792925 -1.73282,-0.792925 -0.64236,0 -1.1837,0.210945 -1.62403,0.632824 -0.43514,0.421859 -0.67603,0.986054 -0.72265,1.692584 z m 8.09042,4.826169 v -8.096992 h 1.25883 v 1.151272 c 0.60609,-0.889494 1.48155,-1.334246 2.6264,-1.334246 0.49732,0 0.95318,0.08893 1.36761,0.266845 0.41961,0.17282 0.73301,0.40155 0.94022,0.686191 0.20722,0.284631 0.35226,0.622639 0.43516,1.014024 0.0518,0.254147 0.0776,0.698899 0.0776,1.334247 v 4.978659 h -1.39869 v -4.925282 c 0,-0.559117 -0.0545,-0.975909 -0.16318,-1.250386 -0.10879,-0.279553 -0.30305,-0.500653 -0.58278,-0.663308 -0.27455,-0.167732 -0.59834,-0.251603 -0.97131,-0.251603 -0.59573,0 -1.11118,0.185518 -1.54632,0.556574 -0.42997,0.371046 -0.64495,1.075022 -0.64495,2.11192 v 4.422085 z m 7.99445,-2.4169 1.38315,-0.213478 c 0.0776,0.543865 0.29269,0.960657 0.64495,1.250375 0.35744,0.289719 0.85475,0.434588 1.49192,0.434588 0.64236,0 1.11895,-0.127074 1.42976,-0.381211 0.31083,-0.259224 0.46624,-0.561661 0.46624,-0.90729 0,-0.310047 -0.13728,-0.55403 -0.41184,-0.731937 -0.19167,-0.121986 -0.66826,-0.277 -1.42977,-0.465071 -1.02569,-0.254147 -1.73799,-0.472713 -2.13687,-0.655687 -0.3937,-0.188072 -0.69417,-0.444752 -0.90137,-0.770062 -0.20204,-0.330387 -0.30306,-0.693812 -0.30306,-1.090264 0,-0.360891 0.0829,-0.693812 0.24866,-0.998783 0.17095,-0.310047 0.40148,-0.566738 0.69158,-0.770052 0.21757,-0.157567 0.51286,-0.289728 0.88583,-0.396462 0.37817,-0.111822 0.78223,-0.167732 1.21219,-0.167732 0.64753,0 1.21478,0.09151 1.70174,0.274466 0.49213,0.182984 0.85474,0.432044 1.08787,0.747179 0.2331,0.310058 0.3937,0.72685 0.48176,1.250386 l -1.3676,0.182984 c -0.0622,-0.416792 -0.2435,-0.742092 -0.54393,-0.9759 -0.29528,-0.233817 -0.71489,-0.350726 -1.25882,-0.350726 -0.64236,0 -1.10082,0.104201 -1.37537,0.312601 -0.27457,0.208391 -0.41184,0.452364 -0.41184,0.731927 0,0.177907 0.057,0.338009 0.17095,0.480324 0.11397,0.147403 0.29268,0.269399 0.53616,0.365968 0.13986,0.05087 0.55171,0.167713 1.23551,0.350727 0.98944,0.259214 1.67842,0.472702 2.06694,0.640435 0.3937,0.162645 0.70193,0.40154 0.92469,0.716675 0.22275,0.315135 0.33412,0.70652 0.33412,1.174145 0,0.457451 -0.13727,0.889495 -0.41183,1.296122 -0.26937,0.40155 -0.66048,0.714141 -1.17334,0.937784 -0.51285,0.218576 -1.09304,0.327853 -1.74058,0.327853 -1.07232,0 -1.89081,-0.218555 -2.45547,-0.655687 -0.55948,-0.437131 -0.91692,-1.085187 -1.07233,-1.944197 z m 8.52421,-7.182071 v -1.578219 h 1.39868 v 1.578219 z m 0,9.598971 v -8.096992 h 1.39868 v 8.096992 z m 3.5278,0 v -8.096992 h 1.25881 v 1.151272 c 0.60609,-0.889494 1.48157,-1.334246 2.62642,-1.334246 0.4973,0 0.95318,0.08893 1.3676,0.266845 0.41961,0.17282 0.73302,0.40155 0.94023,0.686191 0.2072,0.284631 0.35225,0.622639 0.43514,1.014024 0.0518,0.254147 0.0777,0.698899 0.0777,1.334247 v 4.978659 h -1.39868 v -4.925282 c 0,-0.559117 -0.0545,-0.975909 -0.16319,-1.250386 -0.10877,-0.279553 -0.30303,-0.500653 -0.58277,-0.663308 -0.27457,-0.167732 -0.59834,-0.251603 -0.97132,-0.251603 -0.59574,0 -1.11117,0.185518 -1.54632,0.556574 -0.42997,0.371046 -0.64495,1.075022 -0.64495,2.11192 v 4.422085 z m 8.32994,-4.048486 c 0,-1.499445 0.42478,-2.610049 1.27436,-3.331811 0.7097,-0.599786 1.57481,-0.899669 2.59533,-0.899669 1.13448,0 2.06177,0.365958 2.78184,1.097895 0.72005,0.72684 1.08008,1.733253 1.08008,3.01922 0,1.041975 -0.16058,1.86285 -0.48177,2.462636 -0.316,0.594689 -0.77963,1.057227 -1.39091,1.387614 -0.60609,0.330387 -1.26917,0.495585 -1.98924,0.495585 -1.15521,0 -2.09026,-0.363424 -2.80513,-1.090284 -0.70972,-0.72684 -1.06456,-1.773912 -1.06456,-3.141186 z m 1.43754,0 c 0,1.036897 0.23053,1.81457 0.69157,2.333019 0.46105,0.513371 1.04123,0.770052 1.74058,0.770052 0.69417,0 1.27178,-0.259224 1.73282,-0.777673 0.46105,-0.518459 0.69156,-1.30884 0.69156,-2.371154 0,-1.001326 -0.2331,-1.75866 -0.69933,-2.272031 -0.46105,-0.518459 -1.03607,-0.777683 -1.72505,-0.777683 -0.69935,0 -1.27953,0.256681 -1.74058,0.770052 -0.46104,0.513371 -0.69157,1.288511 -0.69157,2.325418 z" /></g></svg>
