<?xml version="1.0" encoding="UTF-8" standalone="no"?>
<!-- Created with Inkscape (http://www.inkscape.org/) -->

<svg
   width="64"
   height="64"
   viewBox="0 0 64 64"
   version="1.1"
   id="svg1"
   xml:space="preserve"
   xmlns="http://www.w3.org/2000/svg"
   xmlns:svg="http://www.w3.org/2000/svg"><defs
     id="defs1" /><g
     id="layer1"><path
       style="fill:#3a1a5b;fill-opacity:1;stroke-width:0.434224"
       d="m 32.033644,0.62234146 c -17.35683,0 -31.43883984,14.08200954 -31.43883984,31.43885454 0,17.356847 14.08200984,31.438857 31.43883984,31.438857 17.356847,0 31.438857,-14.08201 31.438857,-31.438857 0,-17.356845 -14.08201,-31.43885454 -31.438857,-31.43885454 z"
       id="path11-1-2-1" /><path
       style="fill:#ffffff;stroke-width:0.434224"
       d="m 32.033234,1.7066297 c 16.770867,0 30.354987,13.5832603 30.354987,30.3541393 0,16.770884 -13.58412,30.354991 -30.354987,30.354991 -16.77087,0 -30.3541498,-13.584107 -30.3541498,-30.354991 0,-16.770879 13.5832798,-30.3541393 30.3541498,-30.3541393 z"
       id="path12-6-7-2" /><path
       id="rect25"
       style="fill:#3a1a5b;fill-opacity:1;stroke-width:0.414651"
       d="m 9.7199442,45.766194 c -0.71387,0 -1.30497,0.607094 -1.30497,1.340281 v 0.970947 c 0,0.733187 0.5911,1.339457 1.30497,1.339457 H 50.012071 c 0.71387,0 1.30498,-0.60627 1.30498,-1.339457 v -0.970947 c 0,-0.733187 -0.59111,-1.340281 -1.30498,-1.340281 z m 0,1.050563 H 50.012071 c 0.16486,0 0.28209,0.120377 0.28209,0.289718 v 0.970947 c 0,0.169339 -0.11723,0.288904 -0.28209,0.288904 H 9.7199442 c -0.16487,0 -0.28208,-0.119548 -0.28208,-0.288904 v -0.970947 c 0,-0.16936 0.11723,-0.289718 0.28208,-0.289718 z M 42.278081,36.648509 c -0.82077,0 -1.57082,0.206869 -2.15125,0.579446 -0.58042,0.372582 -1.0197,0.954465 -1.0197,1.652989 0,0.698522 0.43928,1.280406 1.0197,1.652987 0.58043,0.372573 1.33048,0.579446 2.15125,0.579446 0.82078,0 1.57084,-0.206869 2.15126,-0.579446 0.58043,-0.372581 1.0197,-0.954465 1.0197,-1.652987 0,-0.698524 -0.43927,-1.280407 -1.0197,-1.652989 -0.58042,-0.372573 -1.33048,-0.579446 -2.15126,-0.579446 z m 0,1.050557 c 0.64803,0 1.22733,0.174932 1.60947,0.420221 0.38211,0.245299 0.5386,0.51734 0.5386,0.761657 0,0.244316 -0.15658,0.516356 -0.5386,0.761656 -0.38214,0.245293 -0.96144,0.42022 -1.60947,0.42022 -0.64801,0 -1.22732,-0.174931 -1.60945,-0.42022 -0.38211,-0.2453 -0.53861,-0.51734 -0.53861,-0.761656 0,-0.244317 0.15658,-0.516358 0.53861,-0.761657 0.38213,-0.245287 0.96144,-0.420221 1.60945,-0.420221 z m 11.8527,-22.455651 c -0.83408,0 -1.52154,0.706048 -1.52154,1.562698 v 15.968469 c 0,0.856654 0.68746,1.562703 1.52154,1.562703 0.83408,0 1.52155,-0.706049 1.52155,-1.562703 V 16.806113 c 0,-0.85665 -0.68747,-1.562698 -1.52155,-1.562698 z m 0,1.050557 c 0.2851,0 0.49866,0.219327 0.49866,0.512141 v 15.968469 c 0,0.292815 -0.21356,0.512146 -0.49866,0.512146 -0.28509,0 -0.49865,-0.219331 -0.49865,-0.512146 V 16.806113 c 0,-0.292814 0.21356,-0.512141 0.49865,-0.512141 z m -4.18103,4.569924 v 5.98817 c 0.002,0.746689 1.02392,0.803359 1.02287,0 v -5.98817 c 0.004,-0.765754 -1.02045,-0.758041 -1.02287,0 z m -9.84531,-8.307609 c -0.25964,-0.0043 -0.51497,0.195974 -0.49865,0.612274 v 5.410373 H 18.642224 V 15.33698 h -4.28652 v 3.241954 h -2.04417 l -0.1166,16.096499 8.7e-4,-0.02622 c -0.0166,0.298116 0.0338,0.63573 0.26291,0.898719 0.22909,0.262789 0.57614,0.365564 0.923,0.365231 h 8.7e-4 1.10839 v 5.494084 c -0.002,0.605534 1.01756,0.604157 1.02289,0 v -5.494084 h 1.0237 c 0.6358,0.0021 1.31316,-0.367437 1.73808,-1.121143 0.42495,-0.753708 0.66381,-1.859195 0.68088,-3.495561 v -0.0035 -0.0021 c -1.9e-4,-1.276371 0.29875,-2.068644 0.86385,-2.579609 0.56512,-0.510969 1.48776,-0.790621 2.86648,-0.782172 h 0.002 11.35084 c 1.250697,0.0118 2.230937,0.242501 2.784167,0.794479 0.5528,0.551574 0.83833,1.511304 0.50265,3.360145 -2.6e-4,0.0013 2.5e-4,0.0017 0,0.0035 l -2.26961,11.653033 h 13.20562 V 25.021259 l -0.002,-0.01885 c -0.16818,-2.389453 -1.0948,-4.06463 -2.55001,-5.068118 -1.35343,-0.933295 -3.10589,-1.294993 -5.08167,-1.345206 v -5.420226 c -4.1e-4,-0.39956 -0.26459,-0.608088 -0.52423,-0.612274 z m -24.725847,3.831252 h 2.24074 v 2.191395 h -2.24074 z m -2.05218,3.24195 h 26.854767 c 2.05133,0.0043 3.76229,0.351174 4.9586,1.176134 1.1943,0.823559 1.94539,2.109675 2.09932,4.261318 v 17.62227 h -10.93451 l 2.02579,-10.405437 8.7e-4,-0.0035 c 0.36952,-2.03105 0.0679,-3.44933 -0.79512,-4.310563 -0.86319,-0.861239 -2.12795,-1.078812 -3.487397,-1.091595 h -0.002 -11.35325 -0.002 c -1.5127,-0.0087 -2.71218,0.290287 -3.54572,1.043995 -0.83421,0.754278 -1.21089,1.913858 -1.21068,3.368343 -0.0166,1.528292 -0.25977,2.472097 -0.54342,2.975214 -0.28402,0.503774 -0.54234,0.597906 -0.84787,0.59668 h -0.002 -3.15896 c -0.12738,0.0035 -0.16942,-0.05665 -0.16466,-0.152666 0.0379,-5.026719 0.0731,-10.053645 0.10957,-15.080419 z" /></g></svg>
