<?xml version="1.0" encoding="UTF-8" standalone="no"?>
<!-- Created with Inkscape (http://www.inkscape.org/) -->

<svg
   width="64"
   height="64"
   viewBox="0 0 64 64"
   version="1.1"
   id="svg1"
   xml:space="preserve"
   xmlns="http://www.w3.org/2000/svg"
   xmlns:svg="http://www.w3.org/2000/svg"><defs
     id="defs1" /><g
     id="layer1"><path
       style="fill:#3a1a5b;fill-opacity:1;stroke-width:0.434224"
       d="m 32.021612,0.62501476 c -17.35682,0 -31.43882997,14.08201224 -31.43882997,31.43885524 0,17.356847 14.08200997,31.438859 31.43882997,31.438859 17.356854,0 31.438864,-14.082012 31.438864,-31.438859 0,-17.356843 -14.08201,-31.43885524 -31.438864,-31.43885524 z"
       id="path11-1-3" /><path
       style="fill:#ffffff;stroke-width:0.434224"
       d="m 32.021202,1.709303 c 16.770874,0 30.354994,13.583261 30.354994,30.354142 0,16.770883 -13.58412,30.354991 -30.354994,30.354991 -16.77087,0 -30.35414,-13.584108 -30.35414,-30.354991 0,-16.770881 13.58327,-30.354142 30.35414,-30.354142 z"
       id="path12-6-5" /><path
       id="path26"
       style="fill:#3a1a5b;fill-opacity:1;stroke-width:0.397189"
       d="m 43.619316,11.003992 c -2.17141,0.08637 -4.55772,0.595369 -7.04936,1.632584 -2.80499,1.167655 -7.138594,4.764109 -11.416204,9.753932 l -13.1446,-8.368145 -8.80238,13.615303 12.99195,8.268073 c -2.22227,4.624501 -3.7453,9.558944 -3.91479,14.45916 l -0.008,0.256123 3.88343,2.955608 10.54349,-10.987059 19.641024,12.49921 8.72097,-13.657707 -16.91526,-10.768254 4.05899,-4.229446 c 1.80465,1.174577 3.85814,1.796265 5.82896,1.672442 2.10411,-0.132203 4.10579,-1.113109 5.4651,-3.058229 2.69158,-3.851496 1.74484,-8.680034 -1.31623,-11.428071 -1.92441,-1.727606 -4.94757,-2.759468 -8.5666,-2.615524 z m 0.8006,0.992272 c 0.75448,0.01118 1.4721,0.08113 2.15416,0.193365 l -0.11019,1.194117 c -0.0166,0.295753 0.23374,0.541611 0.48427,0.555503 0.23278,0.01284 0.46533,-0.18477 0.50462,-0.464755 l 0.10003,-1.085562 c 1.62996,0.403434 2.99016,1.09046 3.96908,1.969274 0.33219,0.298216 0.63508,0.624887 0.90916,0.972766 l -0.82012,0.826889 c -0.2007,0.217893 -0.16425,0.566089 0.0207,0.736149 0.17149,0.157989 0.47687,0.153743 0.68525,-0.03732 l 0.68357,-0.688655 c 0.99194,1.663935 1.3648,3.685332 0.8888,5.664421 l -1.37306,-0.154344 c -0.29537,-0.0221 -0.54599,0.222188 -0.56483,0.472387 -0.0166,0.232471 0.1746,0.469979 0.45373,0.51479 l 1.17545,0.131458 c -0.22253,0.573033 -0.51239,1.138286 -0.8922,1.681768 -0.54476,0.779525 -1.19621,1.365106 -1.91499,1.791175 l -0.98208,-1.374757 c -0.18102,-0.234482 -0.53066,-0.257522 -0.72937,-0.104325 -0.18454,0.142372 -0.23126,0.443421 -0.0781,0.68102 l 0.88458,1.238222 c -0.60081,0.228001 -1.23593,0.363259 -1.89295,0.40454 -1.84281,0.115778 -3.84505,-0.496028 -5.5652,-1.714 l -0.34941,-0.247644 -2.82077,2.939496 -0.88541,-0.861666 c -0.21981,-0.198522 -0.56787,-0.159025 -0.73614,0.02713 -0.15637,0.172942 -0.14891,0.478735 0.0441,0.685262 l 0.8905,0.865903 -1.25772,1.310308 -4.396524,-2.798711 1.932804,-2.265261 c 0.17771,-0.236936 0.10646,-0.579529 -0.0942,-0.730208 -0.0932,-0.06998 -0.21571,-0.09656 -0.33839,-0.07887 -0.12261,0.0176 -0.24516,0.07937 -0.33924,0.184873 l -2.006594,2.350917 -6.04267,-3.846109 c 0.398,-0.460611 0.79639,-0.923329 1.19412,-1.35695 l 0.86844,0.940538 c 0.20896,0.209934 0.55822,0.188788 0.73616,0.01181 0.16528,-0.16441 0.17501,-0.46961 -0.006,-0.686109 l -0.92188,-0.99651 c 1.78927,-1.889654 3.53475,-3.491002 5.09704,-4.734912 l 0.853204,0.922727 c 0.20896,0.20993 0.55822,0.188787 0.73613,0.0118 0.16528,-0.164409 0.17419,-0.469609 -0.008,-0.686109 l -0.79212,-0.858276 c 1.23226,-0.920707 2.32514,-1.591995 3.18459,-1.949765 1.08113,-0.450047 2.13569,-0.788465 3.15746,-1.037219 l 0.16798,0.955801 c 0.0621,0.28961 0.36782,0.460451 0.61317,0.407932 0.22795,-0.04884 0.40131,-0.300496 0.36554,-0.580943 l -0.17564,-0.994814 c 0.88914,-0.168303 1.75019,-0.267937 2.5731,-0.29938 0.25981,-0.0099 0.51519,-0.01305 0.76669,-0.0093 z M 12.335672,15.516702 53.564076,41.763525 46.011796,53.591052 4.712142,27.308607 Z m 0.0831,1.293346 c -0.12489,0.0081 -0.23891,0.06495 -0.31038,0.18827 l -2.30683,3.636628 c -0.30457,0.474411 0.64256,1.014473 0.91595,0.581795 l 2.30681,-3.636628 c 0.24693,-0.378747 -0.23056,-0.794167 -0.60555,-0.770071 z m 34.991534,1.027041 c -1.43367,0 -2.60618,1.172523 -2.60618,2.606191 0,1.433679 1.17251,2.607044 2.60618,2.607044 1.43368,0 2.60619,-1.173361 2.60619,-2.607044 0,-1.433672 -1.17251,-2.606191 -2.60619,-2.606191 z m -33.280074,0.02291 c -0.1249,0.0081 -0.23891,0.06495 -0.31039,0.188269 l -1.16698,1.845455 c -0.30459,0.474411 0.64256,1.014473 0.91593,0.58179 l 1.16698,-1.845452 c 0.24693,-0.378745 -0.23054,-0.794167 -0.60554,-0.770067 z m 33.280074,0.970216 c 0.89704,0 1.61392,0.716046 1.61392,1.613073 0,0.89704 -0.71688,1.613927 -1.61392,1.613927 -0.89703,0 -1.61392,-0.716883 -1.61392,-1.613927 0,-0.897033 0.71689,-1.613073 1.61392,-1.613073 z m -31.678874,0.12891 c -0.12489,0.0081 -0.23891,0.06495 -0.31039,0.188269 l -1.16698,1.845453 c -0.30459,0.474413 0.64256,1.014475 0.91594,0.581793 l 1.16698,-1.845453 c 0.24692,-0.378745 -0.23057,-0.794167 -0.60555,-0.770066 z m 1.46552,1.044851 c -0.12489,0.0081 -0.23891,0.06495 -0.31041,0.188269 l -2.30681,3.636629 c -0.30458,0.474412 0.64256,1.014475 0.91594,0.58179 l 2.30681,-3.636628 c 0.24692,-0.378743 -0.23054,-0.794167 -0.60553,-0.770067 z m 1.8183,1.058421 c -0.12489,0.0081 -0.23891,0.06495 -0.31038,0.18827 l -1.16698,1.845452 c -0.30459,0.474413 0.64256,1.014476 0.91593,0.581793 l 1.16698,-1.845455 c 0.24693,-0.378743 -0.23056,-0.794164 -0.60555,-0.770066 z m 1.60121,1.09913 c -0.12489,0.0081 -0.23891,0.06495 -0.31041,0.18827 l -1.16696,1.845453 c -0.30459,0.474412 0.64254,1.014475 0.91593,0.581792 l 1.16699,-1.845454 c 0.24692,-0.378744 -0.23057,-0.794165 -0.60555,-0.770067 z m 1.65886,1.044853 c -0.12489,0.0081 -0.23891,0.06495 -0.31038,0.18827 l -2.30684,3.636629 c -0.30456,0.47441 0.64257,1.014473 0.91596,0.58179 l 2.30681,-3.636628 c 0.24693,-0.378743 -0.23054,-0.794167 -0.60555,-0.770067 z m 1.81493,0.963436 c -0.12489,0.0081 -0.23891,0.06495 -0.31039,0.188269 l -1.16698,1.845453 c -0.30458,0.474413 0.64256,1.014473 0.91594,0.581791 l 1.16698,-1.845453 c 0.24692,-0.378743 -0.23056,-0.794167 -0.60555,-0.770066 z m -16.31733,0.01864 c -0.12282,0.0056 -0.23512,0.05584 -0.30701,0.167082 l -1.46552,2.333956 c -0.36069,0.502831 0.46966,1.154093 0.91936,0.576705 l 1.4655,-2.333955 c 0.22203,-0.372673 -0.24395,-0.76061 -0.61233,-0.743784 z m 17.91853,1.080476 c -0.12489,0.0081 -0.23891,0.06495 -0.3104,0.188269 l -1.16696,1.845453 c -0.30459,0.474413 0.64254,1.014475 0.91593,0.581793 l 1.16698,-1.845455 c 0.24693,-0.378743 -0.23056,-0.794165 -0.60555,-0.770067 z m 1.54692,0.977005 c -0.12489,0.0081 -0.23891,0.06495 -0.31038,0.18827 l -2.30684,3.636628 c -0.30456,0.474411 0.64256,1.014473 0.91596,0.581791 l 2.30681,-3.636629 c 0.24693,-0.378743 -0.23054,-0.794166 -0.60555,-0.770066 z m 1.72334,0.977004 c -0.12489,0.0081 -0.23891,0.06495 -0.3104,0.188269 l -1.16699,1.845453 c -0.30456,0.474413 0.64256,1.014475 0.91596,0.581793 l 1.16696,-1.845455 c 0.24693,-0.378743 -0.23054,-0.794165 -0.60553,-0.770066 z m 1.60121,1.09913 c -0.1249,0.0081 -0.23891,0.06495 -0.31041,0.18827 l -1.16698,1.845453 c -0.30459,0.474412 0.64256,1.014475 0.91593,0.581792 l 1.16698,-1.845455 c 0.24693,-0.378743 -0.23054,-0.794164 -0.60552,-0.770066 z m 1.53674,1.289105 c -0.12489,0.0081 -0.23891,0.06495 -0.3104,0.188269 l -2.30681,3.636629 c -0.30459,0.474412 0.64254,1.014475 0.91593,0.581792 l 2.30681,-3.636628 c 0.24693,-0.378743 -0.23054,-0.794167 -0.60553,-0.770067 z m 1.774214,0.692045 c -0.12489,0.0081 -0.23891,0.06495 -0.3104,0.18827 l -1.166994,1.845452 c -0.30456,0.474413 0.64256,1.014476 0.91596,0.581793 l 1.166964,-1.845453 c 0.24693,-0.378745 -0.23054,-0.794166 -0.60553,-0.770066 z m -16.244404,0.281564 c -0.12282,0.0056 -0.23512,0.05584 -0.30701,0.167081 l -1.4655,2.333956 c -0.36071,0.502833 0.46964,1.154091 0.91933,0.576701 l 1.4655,-2.333955 c 0.22203,-0.372669 -0.24392,-0.760603 -0.61232,-0.743777 z m 17.845614,0.817566 c -0.1249,0.0081 -0.23891,0.06495 -0.31041,0.18827 l -1.16698,1.845453 c -0.30457,0.474412 0.64256,1.014475 0.91595,0.581792 l 1.16696,-1.845455 c 0.24693,-0.378743 -0.23054,-0.794164 -0.60552,-0.770064 z m 1.56048,1.275532 c -0.12489,0.0081 -0.23891,0.06495 -0.31039,0.18827 l -2.30683,3.636628 c -0.30456,0.474413 0.64256,1.014474 0.91596,0.581791 l 2.30681,-3.636628 c 0.24692,-0.378743 -0.23056,-0.794165 -0.60555,-0.770067 z m 1.70977,0.86845 c -0.12509,0.0081 -0.23893,0.06495 -0.3104,0.188269 l -1.16698,1.845453 c -0.30459,0.474411 0.64256,1.014473 0.91593,0.581791 l 1.16698,-1.845453 c 0.24693,-0.378743 -0.23054,-0.794167 -0.60553,-0.770067 z m 1.60119,1.09913 c -0.12489,0.0081 -0.23891,0.06495 -0.31039,0.18827 l -1.16698,1.845452 c -0.30459,0.474411 0.64256,1.014474 0.91593,0.581791 l 1.16699,-1.845453 c 0.24692,-0.378743 -0.23055,-0.794166 -0.60555,-0.770066 z m 1.63852,0.986332 c -0.12489,0.0081 -0.23806,0.06495 -0.30955,0.18827 l -2.30682,3.636626 c -0.30458,0.474413 0.64257,1.014479 0.91594,0.581797 l 2.30683,-3.636629 c 0.24693,-0.378747 -0.23141,-0.794166 -0.6064,-0.77007 z m -24.933114,0.816716 4.37531,2.784292 -8.01619,9.394344 c 0.15555,-1.535574 0.44089,-3.077018 0.83452,-4.610244 l 0.57247,0.418112 c 0.24554,0.165673 0.58467,0.07732 0.72512,-0.130608 0.13048,-0.193199 0.0801,-0.494339 -0.14001,-0.671694 l -0.87184,-0.636068 c 0.4871,-1.688998 1.09517,-3.36477 1.80898,-5.010541 l 0.82265,0.60045 c 0.24554,0.165673 0.58382,0.07647 0.72427,-0.131458 0.13048,-0.193199 0.0802,-0.49349 -0.14001,-0.67084 l -0.98888,-0.722577 c 0.0944,-0.205729 0.1951,-0.409029 0.29344,-0.613171 z m 26.646264,0.191666 c -0.12489,0.0081 -0.23891,0.06495 -0.3104,0.18827 l -1.16699,1.845452 c -0.30456,0.474411 0.64257,1.014474 0.91596,0.581791 l 1.16698,-1.845453 c 0.24693,-0.378743 -0.23056,-0.794166 -0.60555,-0.770066 z m -16.244404,0.349411 c -0.12282,0.0056 -0.23512,0.05584 -0.30701,0.167082 l -1.4655,2.333955 c -0.36071,0.502831 0.46964,1.154089 0.91934,0.576702 l 1.4655,-2.333956 c 0.22203,-0.372668 -0.24393,-0.760605 -0.61233,-0.743779 z m 17.845614,0.749719 c -0.12489,0.0081 -0.23891,0.06495 -0.31041,0.18827 l -1.16698,1.845455 c -0.30457,0.47441 0.64256,1.014473 0.91595,0.58179 l 1.16699,-1.845453 c 0.24692,-0.378743 -0.23057,-0.794166 -0.60555,-0.770066 z m 1.69958,1.017713 c -0.12489,0.0081 -0.23891,0.06495 -0.31041,0.188269 l -2.30681,3.636629 c -0.30458,0.47441 0.64256,1.014473 0.91594,0.58179 l 2.30681,-3.636628 c 0.24692,-0.378743 -0.23054,-0.794167 -0.60553,-0.770067 z m 1.62494,0.936296 c -0.12489,0.0081 -0.23891,0.06495 -0.31039,0.18827 l -1.16698,1.845453 c -0.30458,0.47441 0.64256,1.014473 0.91594,0.58179 l 1.16698,-1.845452 c 0.24692,-0.378743 -0.23056,-0.794167 -0.60555,-0.770067 z m -26.350284,0.07802 3.57473,2.274587 -1.85225,1.930267 -0.74209,-0.722576 c -0.21983,-0.198522 -0.56704,-0.158134 -0.7353,0.02796 -0.15638,0.172943 -0.14975,0.477886 0.0433,0.684411 l 0.74716,0.725971 -2.38398,2.484066 -0.77176,-0.750564 c -0.21984,-0.198522 -0.56705,-0.159025 -0.73531,0.02713 -0.15638,0.172943 -0.14975,0.477886 0.0433,0.684411 l 0.77685,0.754808 -2.40349,2.504419 -0.98888,-0.961739 c -0.21984,-0.198522 -0.5679,-0.158134 -0.73614,0.028 -0.15637,0.172943 -0.14892,0.477886 0.0441,0.684415 l 0.9931,0.965129 -1.09233,1.138141 -2.68507,-2.044753 z m 27.951484,1.021109 c -0.12489,0.0081 -0.23891,0.06495 -0.31038,0.188269 l -1.16698,1.845455 c -0.30459,0.474411 0.64256,1.014473 0.91593,0.581791 l 1.16698,-1.845453 c 0.24693,-0.378743 -0.23056,-0.794167 -0.60555,-0.770066 z m 1.608,1.007534 c -0.12489,0.0081 -0.23891,0.06495 -0.31041,0.18827 l -2.30681,3.636629 c -0.30458,0.47441 0.64254,1.014477 0.91594,0.581794 l 2.30681,-3.636628 c 0.24692,-0.378747 -0.23054,-0.794167 -0.60553,-0.770071 z m -14.49393,1.210231 c -0.12282,0.0056 -0.23427,0.05584 -0.30618,0.167081 l -1.4655,2.333956 c -0.36071,0.502831 0.46964,1.154093 0.91933,0.576706 l 1.46553,-2.333956 c 0.22202,-0.372673 -0.2448,-0.76061 -0.61318,-0.743779 z m 9.84806,6.167339 c -0.12282,0.0056 -0.23512,0.05669 -0.30701,0.167931 l -1.4655,2.333955 c -0.36071,0.502831 0.46964,1.154093 0.91933,0.576706 l 1.4655,-2.333956 c 0.22205,-0.372672 -0.24392,-0.761456 -0.61232,-0.74463 z" /></g></svg>
