<?xml version="1.0" encoding="UTF-8" standalone="no"?>
<svg width="64" height="64" viewBox="0 0 64 64" version="1.1" xml:space="preserve" xmlns="http://www.w3.org/2000/svg" xmlns:svg="http://www.w3.org/2000/svg">
  <g id="layer1">
    <path style="fill:#3a1a5b;stroke-width:0.434224" d="m 32.01667,0.61332815 c -17.356847,0 -31.43885686,14.08201185 -31.43885686,31.43885485 0,17.356847 14.08200986,31.438859 31.43885686,31.438859 17.356843,0 31.438852,-14.082012 31.438852,-31.438859 0,-17.356843 -14.082009,-31.43885485 -31.438852,-31.43885485 z" id="path11" />
    <path style="fill:#ffffff;stroke-width:0.434224" d="m 32.01667,1.698043 c 16.770879,0 30.354991,13.583261 30.354991,30.35414 0,16.770883 -13.584112,30.354991 -30.354991,30.354991 -16.770881,0 -30.3541441,-13.584108 -30.3541441,-30.354991 0,-16.770879 13.5832631,-30.35414 30.3541441,-30.35414 z" id="path12" />
    <path style="fill:#3a1a5b;stroke-width:0.434224" d="m 43.823839,11.796552 c -1.499337,-0.06191 -3.019017,0.174869 -4.49066,0.347719 -4.944303,0.219126 -17.344638,-0.272502 -18.288308,-0.330754 -0.322989,-0.01988 -0.598364,0.01533 -0.838765,0.145024 -0.240399,0.129635 -0.407431,0.373345 -0.461362,0.583489 -0.07527,0.293313 -0.02305,0.484455 0.02119,0.600449 0.0062,0.07318 0.395612,4.767092 -1.644456,7.945796 -1.106282,1.72374 -2.61177,4.172449 -3.931764,6.430254 -1.319994,2.257797 -2.439406,4.273471 -2.828395,5.325184 -0.31482,0.851175 -1.5302571,3.436321 -2.7147508,5.834037 -0.5922459,1.198864 -1.1802665,2.361521 -1.6537823,3.266013 -0.23676,0.452245 -0.4450952,0.840642 -0.6089333,1.133052 -0.1638298,0.292412 -0.305846,0.512002 -0.3180349,0.527518 -0.1871098,0.238141 -0.3073186,0.490903 -0.312946,0.766675 -0.00559,0.275771 0.1297176,0.52578 0.2730863,0.669149 0.2854636,0.285464 0.6018789,0.323623 0.6046915,0.323969 1.24e-5,0 0.00249,0.0017 0.00249,0.0017 1.1412145,0.527588 2.5093529,0.818961 4.0878155,0.905766 1.54309,2.03389 4.189648,3.099849 7.808402,3.240568 1.9261,1.149444 4.00544,1.495868 6.136808,1.027888 2.432805,1.44185 5.104912,1.649284 7.848266,0.608934 3.835542,0.742932 5.978026,0.358456 8.013644,-0.619109 3.243495,1.229541 5.645538,-0.758777 6.071506,-1.148323 3.972902,-0.01201 6.396181,-1.310835 7.805014,-3.141338 1.918901,-0.16265 2.686424,-0.454244 4.00131,-0.947322 0.224178,-0.08407 0.407955,-0.298889 0.474933,-0.491893 0.06698,-0.193013 0.06311,-0.362379 0.04579,-0.520731 -0.03461,-0.316707 -0.141647,-0.614305 -0.260365,-0.902375 -0.228896,-0.555403 -0.511658,-1.037309 -0.532606,-1.072838 l -4.36005,-9.153483 -0.0093,-0.0203 c -0.0079,-0.01864 -0.706092,-1.655112 -1.665653,-3.580657 -0.965003,-1.936463 -2.153281,-4.129144 -3.268558,-5.315006 -0.919632,-0.977834 -1.870491,-2.755535 -2.554459,-4.268461 -0.667178,-1.475779 -1.06996,-2.63191 -1.090651,-2.691005 L 45.07304,12.670144 c -0.04378,-0.723053 -0.626622,-0.830897 -1.249243,-0.873539 z m -0.307012,1.075389 c 0.187234,0.0058 0.349784,0.02009 0.477476,0.04579 l 0.09413,3.894446 c -7.9331,0.732997 -15.707135,0.579655 -23.295457,-0.631828 0.08662,-0.96142 0.110663,-2.007027 0.05429,-3.185442 0.0027,0.05174 0.0021,-0.113873 0.130609,-0.09753 1.130367,0.06978 13.310638,0.557313 18.403651,0.331603 0.300944,-0.01326 2.824693,-0.398204 4.135305,-0.357043 z m -22.85614,4.387188 c 7.696636,1.224977 15.572014,1.374247 23.592289,0.62844 0.133591,0.36959 0.464071,1.266185 1.033826,2.526473 0.705125,1.55972 1.648872,3.392273 2.752065,4.565291 0.907547,0.96499 2.138924,3.151149 3.087909,5.055492 0.948997,1.904342 1.64785,3.542487 1.64785,3.542487 l 0.0044,0.01015 4.393975,9.224722 0.01181,0.0203 c 0,0 0.28047,0.478263 0.478325,0.958346 0.0901,0.218623 0.14637,0.422414 0.167931,0.55296 -1.130003,0.428141 -1.736132,0.659886 -3.329618,0.805689 -0.06379,-0.165467 -0.146453,-0.385547 -0.250188,-0.664905 -0.2165,-0.582998 -0.512075,-1.391994 -0.859121,-2.349224 -0.694085,-1.914456 -1.594544,-4.423173 -2.486611,-6.916208 -1.784127,-4.986062 -3.372026,-8.526739 -3.372026,-8.526739 -1.189847,-2.41226 -1.29794,-2.140158 -0.534294,0.295138 0,0 1.098865,3.610453 2.883519,8.59798 0.892325,2.493763 1.793215,5.002368 2.488307,6.919601 0.347545,0.958616 0.644152,1.768845 0.862514,2.356853 0.109171,0.294005 0.198501,0.532871 0.266301,0.708159 0.01139,0.02958 0.01595,0.04273 0.02458,0.06615 -1.185588,1.52002 -3.161052,2.626654 -6.765248,2.665565 L 42.332996,23.336571 c -0.73666,-2.834782 -0.855405,-2.159776 -0.690347,0.127212 l 4.085269,25.246922 c -0.580792,0.49924 -2.364174,1.761061 -4.823112,0.817565 L 39.07462,31.675879 c -0.366024,-2.247666 -0.550887,-1.765843 -0.646252,0.06446 l 1.399357,17.928711 c -1.743952,0.801818 -3.466585,1.085908 -6.812739,0.469844 l -0.32906,-28.233058 c -0.17955,-2.1389 -0.358994,-1.560084 -0.538542,0.01781 l -0.217111,28.289035 c -2.379493,0.852284 -4.541835,0.671481 -6.636338,-0.547868 l 1.215321,-18.403646 c -0.08769,-1.499293 -0.268602,-1.3721 -0.519038,-0.03223 l -1.775062,18.306114 c -1.713536,0.330252 -3.320708,0.06462 -4.897741,-0.815869 l 3.97332,-26.161163 c 0.02071,-1.022549 -0.07129,-1.369611 -0.446946,-0.0145 L 18.26832,48.412176 c -3.268289,-0.177106 -5.455396,-1.12851 -6.709274,-2.792774 l 6.910273,-19.975163 c 0.09909,-0.982585 -0.134336,-0.746036 -0.466453,-0.147571 L 10.563383,45.180941 C 9.1357794,45.082208 7.935959,44.804298 6.9844267,44.346413 l -0.056812,-0.02713 -0.033077,-0.0077 c 0.012427,-0.02162 -0.00373,8.67e-4 0.025434,-0.03647 0.1286406,-0.163726 0.2391936,-0.361082 0.4113247,-0.668297 0.1721352,-0.307213 0.3836082,-0.701401 0.6233507,-1.159348 0.4794828,-0.915887 1.0704549,-2.084911 1.6656563,-3.289756 1.1904046,-2.409684 2.3823256,-4.919493 2.7588506,-5.93751 0.302356,-0.817479 1.436868,-2.911525 2.747826,-5.153868 1.310957,-2.242344 2.813086,-4.684709 3.90887,-6.392087 0.811378,-1.26424 1.348828,-2.681096 1.624949,-4.415178 z" />
  </g>
</svg>
