<?xml version="1.0" encoding="UTF-8" standalone="no"?>
<!-- Created with Inkscape (http://www.inkscape.org/) -->

<svg
   width="64"
   height="64"
   viewBox="0 0 64 64"
   version="1.1"
   id="svg1"
   xml:space="preserve"
   xmlns="http://www.w3.org/2000/svg"
   xmlns:svg="http://www.w3.org/2000/svg"><defs
     id="defs1" /><g
     id="layer1"><path
       style="fill:#3a1a5b;fill-opacity:1;stroke-width:0.434224"
       d="m 32.005509,0.54651667 c -17.35685,0 -31.4388601,14.08201133 -31.4388601,31.43885433 0,17.356848 14.0820101,31.438859 31.4388601,31.438859 17.356834,0 31.438844,-14.082011 31.438844,-31.438859 0,-17.356843 -14.08201,-31.43885433 -31.438844,-31.43885433 z"
       id="path11-1-2" /><path
       style="fill:#ffffff;stroke-width:0.434224"
       d="m 32.005079,1.6308071 c 16.770894,0 30.354994,13.5832609 30.354994,30.3541399 0,16.770883 -13.5841,30.354991 -30.354994,30.354991 -16.77087,0 -30.3541501,-13.584108 -30.3541501,-30.354991 0,-16.770879 13.5832801,-30.3541399 30.3541501,-30.3541399 z"
       id="path12-6-7" /><path
       id="path14"
       style="fill:#3a1a5b;fill-opacity:1;stroke-width:0.434224"
       d="m 45.258623,7.3429794 c -0.0957,0.0044 -0.15907,0.01988 -0.2239,0.0373 -0.12302,0.03295 -0.24972,0.07933 -0.40706,0.137402 l -4.32275,1.395113 -13.912134,20.8291956 -6.7924,3.042115 c -1.17675,-2.453597 -3.68443,-4.151423 -6.58291,-4.151423 -4.0244301,0 -7.2978401,3.273426 -7.2978401,7.297852 0,4.024437 3.27341,7.297854 7.2978401,7.297854 3.83969,0 6.99336,-2.980311 7.27496,-6.749134 l 6.27165,0.0687 0.38758,7.061233 c -3.66585,0.383834 -6.53202,3.491255 -6.53202,7.257143 0,4.024435 3.27342,7.297852 7.29786,7.297852 4.02443,0 7.297844,-3.273417 7.297844,-7.297852 0,-2.96074 -1.772684,-5.513302 -4.311714,-6.656693 l 3.33302,-7.92629 20.357654,-13.673822 1.3154,-4.362598 0.002,-0.0093 c 0.0311,-0.117436 0.0636,-0.22488 0.0874,-0.350262 0.0238,-0.125389 0.0998,-0.303181 -0.0882,-0.585188 -0.094,-0.141005 -0.27424,-0.24182 -0.40879,-0.267148 -0.13462,-0.02531 -0.2316,-0.0093 -0.31718,0.0085 -0.17128,0.03573 -0.31544,0.09708 -0.50716,0.185743 l -15.14188,6.450601 6.35138,-15.1054066 0.006,-0.01615 0.004,-0.01098 c 0.0572,-0.116752 0.10666,-0.213989 0.14746,-0.327361 0.0222,-0.06137 0.0474,-0.126839 0.0534,-0.245096 0.006,-0.118244 -0.0404,-0.35105 -0.21118,-0.493592 -0.17087,-0.142538 -0.33515,-0.142455 -0.43084,-0.13823 z m -0.80737,1.372215 -14.769574,35.1238276 c -0.52689,-0.147468 -1.07706,-0.238307 -1.64445,-0.262911 L 27.308709,30.324638 40.996953,9.8295914 Z m 10.08299,9.6699716 -1.06775,3.539099 -18.66402,12.537374 3.92922,-9.344301 z M 13.017469,29.643618 c 3.478,0 6.28607,2.80894 6.28607,6.28692 0,3.477989 -2.80807,6.286078 -6.28607,6.286078 -3.4779801,0 -6.2869201,-2.808085 -6.2869201,-6.286078 0,-3.477984 2.80894,-6.28692 6.2869201,-6.28692 z m 13.2413,1.347619 0.2451,4.470309 -6.2106,-0.06785 c -0.0404,-0.551439 -0.14125,-1.086034 -0.29766,-1.596963 z m 1.45873,13.588167 c 3.47798,0 6.28607,2.808936 6.28607,6.286925 0,3.477989 -2.80809,6.286925 -6.28607,6.286921 -3.478,0 -6.28692,-2.808932 -6.28692,-6.286921 0,-3.477989 2.80892,-6.286925 6.28692,-6.286925 z" /></g></svg>
