<?xml version="1.0" encoding="UTF-8" standalone="no"?>
<!-- Created with Inkscape (http://www.inkscape.org/) -->

<svg
   width="1299"
   height="585"
   viewBox="0 0 1299 585"
   version="1.1"
   id="svg1"
   xml:space="preserve"
   xmlns:xlink="http://www.w3.org/1999/xlink"
   xmlns="http://www.w3.org/2000/svg"
   xmlns:svg="http://www.w3.org/2000/svg"><defs
     id="defs1"><linearGradient
       id="linearGradient364"><stop
         style="stop-color:#7b5ec6;stop-opacity:1;"
         offset="0"
         id="stop364" /><stop
         style="stop-color:#7b5ec6;stop-opacity:0;"
         offset="1"
         id="stop365" /></linearGradient><linearGradient
       xlink:href="#linearGradient364"
       id="linearGradient365"
       x1="0"
       y1="-3.8286302e-08"
       x2="0"
       y2="52.135876"
       gradientUnits="userSpaceOnUse"
       gradientTransform="matrix(3.7795273,0,0,5.4664854,1008.2741,-962.73055)" /><linearGradient
       xlink:href="#linearGradient364"
       id="linearGradient366"
       gradientUnits="userSpaceOnUse"
       gradientTransform="matrix(3.7795273,0,0,5.4664854,-1764.6651,-704.20798)"
       x1="0"
       y1="-3.8286302e-08"
       x2="0"
       y2="52.135876" /></defs><rect
     style="fill:#3a1a5b;fill-opacity:1;stroke-width:5.28686"
     id="rect1"
     width="1299.8608"
     height="585.0108"
     x="-4.2578126e-06"
     y="0" /><g
     id="g1"
     transform="translate(777.34739,-74.779766)"><g
       id="g2-0-3-9"
       transform="matrix(3.7795276,0,0,3.7795276,469.07502,-135.71805)"><circle
         style="fill:#8f7fcb;fill-opacity:1;stroke-width:1.29646"
         id="path1-9-0-6-9"
         cx="17.098532"
         cy="52.5527"
         r="0.95894837" /><circle
         style="fill:#8f7fcb;fill-opacity:1;stroke-width:1.29646"
         id="path1-8-2-2-8"
         cx="48.319366"
         cy="52.817284"
         r="0.95894837" /><circle
         style="fill:#8f7fcb;fill-opacity:1;stroke-width:1.29646"
         id="path1-81-4-4-1"
         cx="48.319366"
         cy="70.015198"
         r="0.95894837" /><circle
         style="fill:#8f7fcb;fill-opacity:1;stroke-width:1.29646"
         id="path1-1-4-6-2"
         cx="32.70895"
         cy="79.540199"
         r="0.95894837" /><circle
         style="fill:#8f7fcb;fill-opacity:1;stroke-width:1.29646"
         id="path1-4-3-0-0"
         cx="17.098532"
         cy="70.279785"
         r="0.95894837" /><circle
         style="fill:#8f7fcb;fill-opacity:1;stroke-width:1.29646"
         id="path1-5-1-9"
         cx="32.64991"
         cy="43.51799"
         r="0.95894837" /><path
         style="fill:none;fill-opacity:1;stroke:#8f7fcb;stroke-width:0.529167;stroke-dasharray:none;stroke-opacity:1"
         d="m 17.078413,52.559502 v 17.763376 l 15.61716,9.269836 15.571493,-9.406829 V 52.787825 L 32.741237,43.517989 Z"
         id="path2-5-9-4" /></g><g
       id="g2-0-3-2"
       transform="matrix(3.9797135,0,0,3.9797135,133.88208,31.589271)"><circle
         style="fill:#8f7fcb;fill-opacity:1;stroke-width:1.29646"
         id="path1-9-0-6-59"
         cx="17.098532"
         cy="52.5527"
         r="0.95894837" /><circle
         style="fill:#8f7fcb;fill-opacity:1;stroke-width:1.29646"
         id="path1-8-2-2-17"
         cx="48.319366"
         cy="52.817284"
         r="0.95894837" /><circle
         style="fill:#8f7fcb;fill-opacity:1;stroke-width:1.29646"
         id="path1-81-4-4-2"
         cx="48.319366"
         cy="70.015198"
         r="0.95894837" /><circle
         style="fill:#8f7fcb;fill-opacity:1;stroke-width:1.29646"
         id="path1-1-4-6-7"
         cx="32.70895"
         cy="79.540199"
         r="0.95894837" /><circle
         style="fill:#8f7fcb;fill-opacity:1;stroke-width:1.29646"
         id="path1-4-3-0-03"
         cx="17.098532"
         cy="70.279785"
         r="0.95894837" /><circle
         style="fill:#8f7fcb;fill-opacity:1;stroke-width:1.29646"
         id="path1-5-1-72"
         cx="32.64991"
         cy="43.51799"
         r="0.95894837" /><path
         style="fill:none;fill-opacity:1;stroke:#8f7fcb;stroke-width:0.529167;stroke-dasharray:none;stroke-opacity:1"
         d="m 17.078413,52.559502 v 17.763376 l 15.61716,9.269836 15.571493,-9.406829 V 52.787825 L 32.741237,43.517989 Z"
         id="path2-5-9-01" /></g><g
       id="g2-0-3-2-8"
       transform="matrix(3.9797135,0,0,3.9797135,244.61298,327.91777)"><circle
         style="fill:#8f7fcb;fill-opacity:1;stroke-width:1.29646"
         id="path1-9-0-6-59-6"
         cx="17.098532"
         cy="52.5527"
         r="0.95894837" /><circle
         style="fill:#8f7fcb;fill-opacity:1;stroke-width:1.29646"
         id="path1-8-2-2-17-50"
         cx="48.319366"
         cy="52.817284"
         r="0.95894837" /><circle
         style="fill:#8f7fcb;fill-opacity:1;stroke-width:1.29646"
         id="path1-81-4-4-2-9"
         cx="48.319366"
         cy="70.015198"
         r="0.95894837" /><circle
         style="fill:#8f7fcb;fill-opacity:1;stroke-width:1.29646"
         id="path1-1-4-6-7-0"
         cx="32.70895"
         cy="79.540199"
         r="0.95894837" /><circle
         style="fill:#8f7fcb;fill-opacity:1;stroke-width:1.29646"
         id="path1-4-3-0-03-0"
         cx="17.098532"
         cy="70.279785"
         r="0.95894837" /><circle
         style="fill:#8f7fcb;fill-opacity:1;stroke-width:1.29646"
         id="path1-5-1-72-6"
         cx="32.64991"
         cy="43.51799"
         r="0.95894837" /><path
         style="fill:none;fill-opacity:1;stroke:#8f7fcb;stroke-width:0.529167;stroke-dasharray:none;stroke-opacity:1"
         d="m 17.078413,52.559502 v 17.763376 l 15.61716,9.269836 15.571493,-9.406829 V 52.787825 L 32.741237,43.517989 Z"
         id="path2-5-9-01-1" /></g><g
       id="g2-0-3-2-8-3"
       transform="matrix(3.9797135,0,0,3.9797135,345.61298,303.5252)"><circle
         style="fill:#8f7fcb;fill-opacity:1;stroke-width:1.29646"
         id="path1-9-0-6-59-6-4"
         cx="17.098532"
         cy="52.5527"
         r="0.95894837" /><circle
         style="fill:#8f7fcb;fill-opacity:1;stroke-width:1.29646"
         id="path1-8-2-2-17-50-4"
         cx="48.319366"
         cy="52.817284"
         r="0.95894837" /><circle
         style="fill:#8f7fcb;fill-opacity:1;stroke-width:1.29646"
         id="path1-81-4-4-2-9-6"
         cx="48.319366"
         cy="70.015198"
         r="0.95894837" /><circle
         style="fill:#8f7fcb;fill-opacity:1;stroke-width:1.29646"
         id="path1-1-4-6-7-0-0"
         cx="32.70895"
         cy="79.540199"
         r="0.95894837" /><circle
         style="fill:#8f7fcb;fill-opacity:1;stroke-width:1.29646"
         id="path1-4-3-0-03-0-6"
         cx="17.098532"
         cy="70.279785"
         r="0.95894837" /><circle
         style="fill:#8f7fcb;fill-opacity:1;stroke-width:1.29646"
         id="path1-5-1-72-6-6"
         cx="32.64991"
         cy="43.51799"
         r="0.95894837" /><path
         style="fill:none;fill-opacity:1;stroke:#8f7fcb;stroke-width:0.529167;stroke-dasharray:none;stroke-opacity:1"
         d="m 17.078413,52.559502 v 17.763376 l 15.61716,9.269836 15.571493,-9.406829 V 52.787825 L 32.741237,43.517989 Z"
         id="path2-5-9-01-1-1" /></g><g
       id="g2-0-3-2-7"
       transform="matrix(3.9797135,0,0,3.9797135,165.80927,251.72922)"><circle
         style="fill:#8f7fcb;fill-opacity:1;stroke-width:1.29646"
         id="path1-9-0-6-59-9"
         cx="17.098532"
         cy="52.5527"
         r="0.95894837" /><circle
         style="fill:#8f7fcb;fill-opacity:1;stroke-width:1.29646"
         id="path1-8-2-2-17-5"
         cx="48.319366"
         cy="52.817284"
         r="0.95894837" /><circle
         style="fill:#8f7fcb;fill-opacity:1;stroke-width:1.29646"
         id="path1-81-4-4-2-4"
         cx="48.319366"
         cy="70.015198"
         r="0.95894837" /><circle
         style="fill:#8f7fcb;fill-opacity:1;stroke-width:1.29646"
         id="path1-1-4-6-7-3"
         cx="32.70895"
         cy="79.540199"
         r="0.95894837" /><circle
         style="fill:#8f7fcb;fill-opacity:1;stroke-width:1.29646"
         id="path1-4-3-0-03-1"
         cx="17.098532"
         cy="70.279785"
         r="0.95894837" /><circle
         style="fill:#8f7fcb;fill-opacity:1;stroke-width:1.29646"
         id="path1-5-1-72-2"
         cx="32.64991"
         cy="43.51799"
         r="0.95894837" /><path
         style="fill:none;fill-opacity:1;stroke:#8f7fcb;stroke-width:0.529167;stroke-dasharray:none;stroke-opacity:1"
         d="m 17.078413,52.559502 v 17.763376 l 15.61716,9.269836 15.571493,-9.406829 V 52.787825 L 32.741237,43.517989 Z"
         id="path2-5-9-01-3" /></g><g
       id="g2-0-3-73-7"
       transform="matrix(3.4829344,0,0,3.4829344,331.97392,68.647589)"
       style="stroke-width:1.16916"><circle
         style="fill:#8f7fcb;fill-opacity:1;stroke-width:1.51576"
         id="path1-9-0-6-26-5"
         cx="17.098532"
         cy="52.5527"
         r="0.95894837" /><circle
         style="fill:#8f7fcb;fill-opacity:1;stroke-width:1.51576"
         id="path1-8-2-2-0-45"
         cx="48.319366"
         cy="52.817284"
         r="0.95894837" /><circle
         style="fill:#8f7fcb;fill-opacity:1;stroke-width:1.51576"
         id="path1-81-4-4-6-1"
         cx="48.319366"
         cy="70.015198"
         r="0.95894837" /><circle
         style="fill:#8f7fcb;fill-opacity:1;stroke-width:1.51576"
         id="path1-1-4-6-1-9"
         cx="32.70895"
         cy="79.540199"
         r="0.95894837" /><circle
         style="fill:#8f7fcb;fill-opacity:1;stroke-width:1.51576"
         id="path1-4-3-0-6-8"
         cx="17.098532"
         cy="70.279785"
         r="0.95894837" /><circle
         style="fill:#8f7fcb;fill-opacity:1;stroke-width:1.51576"
         id="path1-5-1-5-7"
         cx="32.64991"
         cy="43.51799"
         r="0.95894837" /><path
         style="fill:none;fill-opacity:1;stroke:#8f7fcb;stroke-width:0.618678;stroke-dasharray:2.47471, 2.47471;stroke-dashoffset:0;stroke-opacity:1"
         d="m 17.078413,52.559502 v 17.763376 l 15.61716,9.269836 15.571493,-9.406829 V 52.787825 L 32.741237,43.517989 Z"
         id="path2-5-9-9-5" /></g><g
       id="g2-0-3-73-7-1"
       transform="matrix(3.4829344,0,0,3.4829344,103.28148,283.51154)"
       style="stroke-width:1.16916"><circle
         style="fill:#8f7fcb;fill-opacity:1;stroke-width:1.51576"
         id="path1-9-0-6-26-5-3"
         cx="17.098532"
         cy="52.5527"
         r="0.95894837" /><circle
         style="fill:#8f7fcb;fill-opacity:1;stroke-width:1.51576"
         id="path1-8-2-2-0-45-8"
         cx="48.319366"
         cy="52.817284"
         r="0.95894837" /><circle
         style="fill:#8f7fcb;fill-opacity:1;stroke-width:1.51576"
         id="path1-81-4-4-6-1-7"
         cx="48.319366"
         cy="70.015198"
         r="0.95894837" /><circle
         style="fill:#8f7fcb;fill-opacity:1;stroke-width:1.51576"
         id="path1-1-4-6-1-9-4"
         cx="32.70895"
         cy="79.540199"
         r="0.95894837" /><circle
         style="fill:#8f7fcb;fill-opacity:1;stroke-width:1.51576"
         id="path1-4-3-0-6-8-2"
         cx="17.098532"
         cy="70.279785"
         r="0.95894837" /><circle
         style="fill:#8f7fcb;fill-opacity:1;stroke-width:1.51576"
         id="path1-5-1-5-7-7"
         cx="32.64991"
         cy="43.51799"
         r="0.95894837" /><path
         style="fill:none;fill-opacity:1;stroke:#8f7fcb;stroke-width:0.618678;stroke-dasharray:2.47471, 2.47471;stroke-dashoffset:0;stroke-opacity:1"
         d="m 17.078413,52.559502 v 17.763376 l 15.61716,9.269836 15.571493,-9.406829 V 52.787825 L 32.741237,43.517989 Z"
         id="path2-5-9-9-5-7" /></g><g
       id="g2-0-3-73-7-1-9"
       transform="matrix(3.4829344,0,0,3.4829344,-12.108017,346.80984)"
       style="stroke-width:1.16916"><circle
         style="fill:#8f7fcb;fill-opacity:1;stroke-width:1.51576"
         id="path1-9-0-6-26-5-3-8"
         cx="17.098532"
         cy="52.5527"
         r="0.95894837" /><circle
         style="fill:#8f7fcb;fill-opacity:1;stroke-width:1.51576"
         id="path1-8-2-2-0-45-8-6"
         cx="48.319366"
         cy="52.817284"
         r="0.95894837" /><circle
         style="fill:#8f7fcb;fill-opacity:1;stroke-width:1.51576"
         id="path1-81-4-4-6-1-7-5"
         cx="48.319366"
         cy="70.015198"
         r="0.95894837" /><circle
         style="fill:#8f7fcb;fill-opacity:1;stroke-width:1.51576"
         id="path1-1-4-6-1-9-4-0"
         cx="32.70895"
         cy="79.540199"
         r="0.95894837" /><circle
         style="fill:#8f7fcb;fill-opacity:1;stroke-width:1.51576"
         id="path1-4-3-0-6-8-2-2"
         cx="17.098532"
         cy="70.279785"
         r="0.95894837" /><circle
         style="fill:#8f7fcb;fill-opacity:1;stroke-width:1.51576"
         id="path1-5-1-5-7-7-8"
         cx="32.64991"
         cy="43.51799"
         r="0.95894837" /><path
         style="fill:none;fill-opacity:1;stroke:#8f7fcb;stroke-width:0.618678;stroke-dasharray:2.47471, 2.47471;stroke-dashoffset:0;stroke-opacity:1"
         d="m 17.078413,52.559502 v 17.763376 l 15.61716,9.269836 15.571493,-9.406829 V 52.787825 L 32.741237,43.517989 Z"
         id="path2-5-9-9-5-7-6" /></g><g
       id="g2-0-3-73-7-4"
       transform="matrix(3.4829344,0,0,3.4829344,480.2274,67.489903)"
       style="stroke-width:1.16916"><circle
         style="fill:#8f7fcb;fill-opacity:1;stroke-width:1.51576"
         id="path1-9-0-6-26-5-2"
         cx="17.098532"
         cy="52.5527"
         r="0.95894837" /><circle
         style="fill:#8f7fcb;fill-opacity:1;stroke-width:1.51576"
         id="path1-8-2-2-0-45-3"
         cx="48.319366"
         cy="52.817284"
         r="0.95894837" /><circle
         style="fill:#8f7fcb;fill-opacity:1;stroke-width:1.51576"
         id="path1-81-4-4-6-1-2"
         cx="48.319366"
         cy="70.015198"
         r="0.95894837" /><circle
         style="fill:#8f7fcb;fill-opacity:1;stroke-width:1.51576"
         id="path1-1-4-6-1-9-2"
         cx="32.70895"
         cy="79.540199"
         r="0.95894837" /><circle
         style="fill:#8f7fcb;fill-opacity:1;stroke-width:1.51576"
         id="path1-4-3-0-6-8-1"
         cx="17.098532"
         cy="70.279785"
         r="0.95894837" /><circle
         style="fill:#8f7fcb;fill-opacity:1;stroke-width:1.51576"
         id="path1-5-1-5-7-6"
         cx="32.64991"
         cy="43.51799"
         r="0.95894837" /><path
         style="fill:none;fill-opacity:1;stroke:#8f7fcb;stroke-width:0.618678;stroke-dasharray:2.47471, 2.47471;stroke-dashoffset:0;stroke-opacity:1"
         d="m 17.078413,52.559502 v 17.763376 l 15.61716,9.269836 15.571493,-9.406829 V 52.787825 L 32.741237,43.517989 Z"
         id="path2-5-9-9-5-8" /></g><path
       style="fill:none;fill-opacity:1;stroke:#8f7fcb;stroke-width:1.07458;stroke-dasharray:none;stroke-opacity:1"
       d="m 385.54155,212.89322 v 38.9312 l 34.23675,20.31628 34.13653,-20.61652 v -38.13056 l -34.03648,-20.31628 z"
       id="path2-1-9-2-0" /><path
       style="fill:none;fill-opacity:1;stroke:#8f7fcb;stroke-width:1.26729;stroke-dasharray:none;stroke-opacity:1"
       d="m 194.83415,97.602806 v 71.296814 l 62.75092,37.20635 62.56723,-37.7562 V 98.519224 L 257.76844,61.312923 Z"
       id="path2-1-9-2-0-0-0" /><path
       style="fill:none;fill-opacity:1;stroke:#8f7fcb;stroke-width:2.92283;stroke-dasharray:none;stroke-opacity:1"
       d="m 534.18614,353.57112 v 164.43629 l 144.72637,85.81133 144.30271,-87.07948 V 355.68469 l -143.8798,-85.81121 z"
       id="path2-1-9-2-0-0-0-6" /><path
       style="fill:none;fill-opacity:1;stroke:#8f7fcb;stroke-width:2.16144;stroke-dasharray:none;stroke-opacity:1"
       d="m 277.19518,371.15515 v 121.60096 l 107.02544,63.45765 106.71215,-64.39545 V 372.71814 l -106.3994,-63.45757 z"
       id="path2-1-9-2-0-0-0-1" /><path
       style="fill:none;fill-opacity:1;stroke:#8f7fcb;stroke-width:1.32919;stroke-dasharray:none;stroke-opacity:1"
       d="m 368.80539,147.25895 v 99.00635 l 87.18013,51.6666 86.92487,-52.43009 V 148.53148 L 456.24026,96.864971 Z"
       id="path2-1-9-2-0-0-0-8-5-5" /><path
       style="fill:none;fill-opacity:1;stroke:#8f7fcb;stroke-width:1.00932;stroke-dasharray:none;stroke-opacity:1"
       d="m 152.10822,207.43364 v 75.18065 l 66.20038,39.23312 66.00656,-39.81288 v -73.6346 l -65.81312,-39.23305 z"
       id="path2-1-9-2-0-0-0-8-5-5-7" /><path
       style="fill:none;fill-opacity:1;stroke:#8f7fcb;stroke-width:1.00932;stroke-dasharray:none;stroke-opacity:1"
       d="m 95.639125,-44.14828 v 75.18065 l 66.200385,39.23312 66.00656,-39.81288 v -73.6346 l -65.81312,-39.23305 z"
       id="path2-1-9-2-0-0-0-8-5-5-7-2" /></g><path
     id="rect9"
     style="fill:#ffffff;fill-opacity:1;stroke-width:6.11567"
     d="m 77.110565,209.95283 v 120.50052 h 56.617175 c 41.11971,-8.3746 51.33212,-35.10653 51.45256,-61.42742 0.11982,-26.32086 -14.42248,-54.8972 -51.45256,-59.0731 z m 33.095715,29.14539 h 19.69905 c 14.00961,2.14356 21.2332,16.81392 21.18764,30.32494 -0.0462,13.51107 -5.63077,27.23233 -21.18764,31.53116 h -19.69905 z m 440.08203,2.31796 v 88.82401 h 33.15172 v -49.33518 c 5.60245,-17.27632 24.74331,-15.31436 24.75666,-1.60524 v 50.94042 h 33.15423 v -59.31998 c 0.004,-14.89116 -7.56928,-30.79883 -25.0864,-30.79045 -17.51715,0.009 -25.47159,2.59227 -36.70614,14.47346 v -13.18704 z m -185.5684,28.89463 12.91658,-19.47694 c -12.86289,-6.01028 -23.62735,-10.51034 -41.01005,-10.59458 -17.38271,-0.0842 -37.45394,11.30472 -37.99624,29.64346 -0.54242,18.33876 17.48131,21.975 30.13861,25.36282 12.6573,3.38779 21.41318,6.76245 20.23598,10.59461 -1.17721,3.83216 -10.38265,3.49151 -18.51374,1.92625 -8.13108,-1.5652 -16.52714,-4.40346 -23.78805,-8.34723 l -11.51729,21.18921 c 12.86049,6.0589 28.33024,11.78981 48.32958,11.12963 19.99917,-0.66013 35.89487,-7.66606 37.2427,-26.96801 1.34783,-19.30195 -17.09103,-25.5185 -29.49278,-28.78737 -12.40182,-3.26886 -22.75588,-5.40918 -21.87086,-9.99523 0.88503,-4.58604 11.00794,-4.15428 16.38124,-2.95372 5.37342,1.20055 12.7524,4.36287 18.94432,7.2771 z m 111.83445,-29.95309 c -1.24529,0.01 -2.54523,0.0575 -3.90281,0.14293 -21.72137,1.36548 -36.66179,19.43995 -37.29572,44.49434 -0.63399,25.05447 14.12578,43.60573 32.57682,45.25249 18.45099,1.64676 25.49557,-4.25072 32.87891,-11.80543 1.86645,9.62124 0.24469,24.42236 -18.41766,25.12225 -18.66239,0.69988 -21.88052,-4.34405 -29.076,-9.83624 l -17.20199,17.25276 c 12.62795,11.28215 23.62096,20.7796 56.64645,16.39051 33.02544,-4.38908 41.18251,-31.00219 41.08161,-38.48752 v -87.77766 h -27.70446 v 13.01405 c -4.51675,-5.92982 -10.90614,-13.91289 -29.58515,-13.76248 z m 8.62171,27.49106 c 7.10133,0 12.40566,4.69479 16.13492,10.71304 v 18.69152 c -3.32774,5.48961 -9.72608,8.36856 -15.78413,8.37326 -9.94602,-10e-4 -17.25879,-8.31725 -17.25804,-19.10327 4.3e-4,-10.78506 6.96208,-18.67322 16.90725,-18.67455 z m -93.54662,-26.64639 h 31.86088 v 89.25144 h -31.86088 z m 0,-34.45915 h 31.86088 v 26.75403 h -31.86088 z m 588.22871,33.30202 c -15.90968,-0.0363 -29.8811,4.6345 -39.72955,12.56354 l 9.58891,17.40294 c 8.91651,-4.77477 18.9393,-7.5357 27.17088,-7.65874 11.04684,-0.16515 18.07769,4.95786 15.60381,13.25868 -5.78769,-4.59525 -14.76576,-4.72325 -24.9637,-4.08612 -10.19789,0.63713 -31.1497,11.69224 -31.20521,31.17755 -0.0557,19.48526 18.52022,29.14123 30.74721,29.20835 12.22701,0.067 20.36914,-5.07687 30.74969,-14.68048 2.06722,9.4787 9.0996,14.73401 19.0291,14.53031 5.5816,-0.43823 11.1625,-0.67518 16.7441,-2.27198 v -26.03049 c -4.1176,-1.02708 -7.6814,-2.84184 -8.9823,-7.8695 v -21.49147 c -0.2274,-9.67525 -1.963,-17.76898 -10.0469,-24.21394 -8.0839,-6.44496 -18.79642,-9.8022 -34.70604,-9.83865 z m 2.11944,48.82751 a 9.6043168,14.013366 78.248896 0 1 12.04949,8.32485 9.6043168,14.013366 78.248896 0 1 -13.85958,11.21198 9.6043168,14.013366 78.248896 0 1 -13.85953,-8.21337 9.6043168,14.013366 78.248896 0 1 13.85953,-11.21205 9.6043168,14.013366 78.248896 0 1 1.81009,-0.11158 z m -740.35573,-49.1945 c -27.32291,0 -49.47184,18.43059 -49.47184,46.23588 0,28.56195 21.08344,46.23584 49.47184,46.23584 21.66242,0 37.58686,-9.84547 44.94051,-25.25062 l -23.93321,-6.83523 c -2.75604,-0.8418 -4.14218,-0.65019 -4.76023,0.70002 -2.16669,4.55285 -6.63587,7.75446 -15.38464,7.79196 -8.74876,0.0372 -15.69528,-5.31221 -16.08381,-13.86423 h 63.96483 c 0.47365,-2.82111 0.72839,-5.74801 0.72839,-8.77774 0,-26.7459 -18.95219,-46.2359 -49.47184,-46.23588 z m -0.43608,23.15548 a 14.480937,13.256945 0 0 1 14.42472,12.10576 h -28.81525 a 14.480937,13.256945 0 0 1 14.39053,-12.10576 z m 640.18416,-22.93866 c -27.3229,1e-5 -49.47185,18.43059 -49.47185,46.23587 0,28.56197 21.08342,46.23586 49.47185,46.23586 21.66245,0 37.5869,-9.84547 44.9406,-25.25062 l -23.93327,-6.83523 c -2.75603,-0.8418 -4.14223,-0.65019 -4.76027,0.70001 -2.16667,4.55286 -6.63584,7.75447 -15.38461,7.79196 -8.74877,0.0373 -15.69532,-5.31221 -16.08379,-13.86423 h 63.96476 c 0.47366,-2.82112 0.72848,-5.74801 0.72848,-8.77775 0,-26.74588 -18.95227,-46.23589 -49.4719,-46.23587 z m -0.43587,23.15547 a 14.480937,13.256945 0 0 1 14.4247,12.10576 h -28.81529 a 14.480937,13.256945 0 0 1 14.39059,-12.10576 z m -235.27876,-53.5249 h 36.16636 l 27.34008,83.04452 7.41163,-24.95951 -19.89771,-58.08501 h 31.21509 l 10.54852,37.45564 11.40966,-37.45564 h 30.35395 l -19.98106,59.72055 8.35611,22.25382 26.47901,-81.97437 h 36.59693 L 783.6473,330.23987 h -27.34008 l -17.86793,-41.09421 -16.57621,41.09421 h -28.4165 z m 455.99518,-17.69001 23.8509,-10.55871 c 1.5477,-0.68042 1.3431,-1.49893 0.2222,-2.4808 -5.6719,-5.00515 -11.7381,-6.94408 -18.7851,-3.78318 -6.479,2.9061 -8.3593,8.83387 -8.5597,14.75035 -0.1769,2.29039 0.8112,3.1105 3.2719,2.07234 z m 28.4577,46.87502 c -4.7728,0.0462 -8.7607,1.72238 -12.7925,3.30377 -13.2308,-6.1159 -27.2749,-4.94669 -43.5348,16.0417 l 0.076,-17.0275 h -28.8471 v 88.08285 h 18.3227 c 4.1256,4.09038 9.1735,7.83648 15.5673,11.08122 -5.3697,-1.99234 -10.4921,-4.24988 -15.387,-6.75048 -6.5939,-3.87309 -9.2568,-3.52709 -1.2912,1.97644 10.6352,6.69031 24.446,12.33825 36.2676,12.42308 3.115,0.0236 4.6254,-0.32624 1.2693,-2.49962 -1.222,-0.79147 -2.1064,-1.76726 -2.6676,-3.11486 2.7969,1.49988 5.548,3.04301 9.0407,3.85115 0.8111,17.20181 5.1525,30.65864 10.2247,43.34143 -1.1771,-13.69722 -2.8934,-27.45476 -1.6127,-40.88051 1.1787,-1.08193 2.4796,-1.05656 3.8735,-0.21326 3.3738,27.19134 -0.2231,51.95731 -2.2608,77.26563 7.8166,-24.47837 16.7512,-48.83956 11.5184,-74.69819 5.9521,0.17434 12.0902,0.87194 17.2239,-1.25952 2.8529,-0.9992 3.2285,-3.24374 0.3486,-3.15844 -9.1299,-0.29808 -16.8377,-1.74013 -22.9539,-4.46394 17.8636,2.91702 34.9877,2.50169 51.6011,-0.22313 13.0199,-2.18188 12.75,-2.6909 -0.3146,-2.12419 -19.4656,0.0999 -37.6568,-1.80105 -53.9789,-6.64146 35.4814,7.09911 56.7128,3.08392 74.6646,-1.82384 5.7255,-1.56525 3.4144,-3.4046 -0.5652,-2.93562 -6.8476,0.80722 -13.6905,1.13837 -20.3886,0.90588 2.8648,-0.62896 5.4614,-1.48459 7.8008,-2.47296 8.3572,-3.46301 4.3138,-6.84999 -2.0927,-5.20998 -6.4036,0.86885 -11.992,0.57403 -18.8392,-0.18185 l 3.4741,-1.14083 c 8.5739,-3.46077 2.8316,-4.74184 -2.5532,-4.41796 -12.5759,-0.42979 -25.3125,-1.57992 -33.8582,-5.62413 3.6446,0.67504 7.4383,1.16464 11.2479,1.31275 15.2202,-0.17623 9.486,-2.78806 1.05,-4.98954 -7.6238,-2.23672 -14.8501,-4.76995 -20.4787,-8.20372 6.0887,2.1023 13.0521,3.25369 19.5335,3.83906 6.9555,0.54305 7.0124,-2.44333 0.7649,-4.71831 -8.2429,-3.21952 -14.9535,-7.35401 -22.6006,-11.37914 4.7434,0.76536 7.6463,0.50603 10.9702,0.61524 4.7788,0.15703 6.3156,-0.84003 1.4593,-2.44391 -4.3295,-1.42988 -8.2224,-3.49271 -11.7425,-5.92451 3.695,0.89607 6.6187,1.3997 9.0481,1.65186 8.5107,0.87817 5.4172,-1.86963 1.525,-3.42001 -5.12,-2.20472 -9.4137,-4.62252 -13.2943,-7.14526 4.7059,0.4039 8.9521,1.18866 12.5878,1.83112 2.2171,0.0986 4.2272,-0.171 4.6434,-3.25533 l 7.2306,-23.6084 c 0.5539,-2.27723 -0.1227,-3.80092 -2.2072,-4.46397 -2.5724,-0.81366 -4.9027,-1.13038 -7.0722,-1.10933 z m -25.2877,30.47755 c 5.2611,2.66591 10.4901,5.3933 16.7025,6.90304 l -9.0041,-2.0249 c -6.3784,-1.62313 -7.744,0.85534 -1.7979,4.11034 4.5023,2.49479 9.5043,4.58552 14.5708,6.36777 -3.7624,-0.21793 -7.3856,-0.88984 -10.9385,-1.79238 -5.985,-1.85736 -4.3021,1.65994 -1.1913,4.01102 6.2717,4.90054 14.3097,9.39795 23.5386,12.33587 -7.356,-0.45512 -15.0155,-2.68716 -22.3863,-5.21965 -7.8757,-3.0535 -6.4739,0.60713 -3.6494,2.54079 6.5643,3.91044 13.9185,7.69288 21.0853,10.81236 -9.1344,-2.91049 -18.3143,-5.74107 -26.2646,-10.80993 -2.5462,-1.52331 -5.3419,0.57909 -3.2305,3.21175 1.8726,2.45799 4.6735,4.45478 7.3209,6.5276 -4.9628,-1.7479 -8.0012,-3.496 -10.5488,-5.24391 -2.6669,-2.12634 -5.813,1.34206 -4.5216,3.63803 1.4544,2.32418 3.6811,4.3932 6.3512,6.31448 -3.5111,-1.12578 -5.9831,-2.4533 -8.478,-4.79094 -2.487,-2.70549 -6.5942,1.31177 -4.1976,4.17572 7.1766,7.97003 18.8934,13.93875 37.4322,20.84236 -12.2128,-2.32419 -23.871,-7.46184 -34.8303,-13.43793 -8.9775,-6.78189 -18.6246,-8.00531 -2.1317,3.33285 13.675,9.83535 29.1447,16.20758 55.3675,19.41327 -39.3404,-2.36224 -51.2427,-13.8157 -68.0308,-23.652 V 279.6227 c 10.2561,-7.17624 20.0672,-9.83496 28.8324,-10.43448 z m -28.8324,58.03399 c 3.1635,2.1451 6.5035,4.10829 10.5,6.17402 -4.0255,-1.37551 -7.3921,-2.87293 -10.5,-4.48094 z m -14.6903,-132.2765 c 14.5971,12.76235 31.7176,15.09793 48.7114,0.30268 16.9938,-14.79524 41.7382,-22.04532 50.0814,-11.50211 8.3432,10.54321 -9.2367,32.55293 -34.098,41.16547 -3.55,1.15922 -4.9749,-1.3799 -3.0444,-2.87553 3.2353,-2.19372 5.5827,-6.08107 5.7214,-11.76966 0.1387,-5.68859 -4.9651,-12.51455 -13.7539,-12.32912 -8.7889,0.18541 -13.3361,7.90212 -13.1173,13.24637 0.2189,5.34427 3.5603,9.86243 8.7321,11.76966 2.465,0.65793 1.395,5.52392 -2.5002,6.1959 -31.2731,3.29982 -41.1306,-13.62762 -48.407,-32.99291 z m -157.88448,191.66737 6.81783,0.82717 c -1.0752,3.90825 -3.06684,6.9413 -5.97477,9.09925 -2.90792,2.15793 -6.6223,3.23689 -11.14313,3.23689 -5.69372,0 -10.21449,-1.71434 -13.56226,-5.1431 -3.32341,-3.45264 -4.98513,-8.28395 -4.98513,-14.49396 0,-6.42582 1.68616,-11.41298 5.0584,-14.96157 3.37229,-3.5486 7.74641,-5.32285 13.12246,-5.32285 5.20497,0 9.45692,1.73835 12.75595,5.21495 3.29892,3.47664 4.94839,8.36791 4.94839,14.67387 0,0.38389 -0.0141,0.95902 -0.0377,1.7263 h -29.03072 c 0.24482,4.19598 1.45384,7.40884 3.62884,9.63867 2.17488,2.22985 4.88737,3.34481 8.13743,3.34481 2.41922,0 4.48413,-0.62339 6.19463,-1.8702 1.71056,-1.24682 3.0668,-3.23686 4.06874,-5.97023 z m -21.66306,-10.4659 h 21.73636 c -0.2934,-3.21285 -1.12411,-5.62257 -2.49252,-7.22903 -2.10161,-2.49358 -4.82622,-3.74039 -8.17407,-3.74039 -3.03014,0 -5.58376,0.99507 -7.66089,2.98515 -2.05264,1.99 -3.18896,4.65142 -3.40888,7.98427 z m 38.16418,22.76604 v -38.19518 h 5.93816 v 5.43078 c 2.85906,-4.19593 6.98878,-6.29391 12.38927,-6.29391 2.34597,0 4.49636,0.4195 6.4513,1.25876 1.97939,0.81524 3.45777,1.8942 4.43521,3.23691 0.97751,1.34267 1.66169,2.93712 2.05274,4.78336 0.24436,1.19886 0.36606,3.29686 0.36606,6.29392 v 23.48536 h -6.5979 v -23.23357 c 0,-2.63748 -0.2571,-4.60356 -0.76977,-5.89833 -0.51317,-1.31872 -1.42954,-2.36169 -2.74909,-3.12896 -1.29511,-0.79123 -2.82249,-1.18687 -4.58186,-1.18687 -2.81019,0 -5.24167,0.87513 -7.29431,2.62548 -2.02827,1.7503 -3.04237,5.0711 -3.04237,9.96237 v 20.85988 z m 37.71148,-11.40101 6.5246,-1.00703 c 0.36605,2.56553 1.38068,4.53162 3.04237,5.89828 1.68611,1.36667 4.03203,2.05005 7.03769,2.05005 3.03015,0 5.27832,-0.59944 6.74448,-1.79826 1.46625,-1.22281 2.19934,-2.64946 2.19934,-4.27988 0,-1.46255 -0.64757,-2.61347 -1.94273,-3.45269 -0.90415,-0.57543 -3.15233,-1.30666 -6.74452,-2.19383 -4.8384,-1.19887 -8.19846,-2.22989 -10.08006,-3.09302 -1.85716,-0.88717 -3.27455,-2.09798 -4.25196,-3.63254 -0.95305,-1.55851 -1.42959,-3.27285 -1.42959,-5.143 0,-1.7024 0.39105,-3.27285 1.17299,-4.71147 0.8064,-1.46255 1.89385,-2.67341 3.26231,-3.63249 1.02634,-0.74327 2.41927,-1.36671 4.17865,-1.87019 1.78391,-0.5275 3.68994,-0.79123 5.71816,-0.79123 3.05453,0 5.73036,0.43167 8.02745,1.29471 2.32148,0.86318 4.032,2.03804 5.13172,3.52461 1.09957,1.4626 1.85716,3.4287 2.27255,5.89831 l -6.45125,0.86319 c -0.29341,-1.9661 -1.14864,-3.50061 -2.56583,-4.60352 -1.3929,-1.10297 -3.37229,-1.65445 -5.93811,-1.65445 -3.03015,0 -5.1928,0.49153 -6.48791,1.4746 -1.29521,0.98302 -1.94273,2.13389 -1.94273,3.45265 0,0.83922 0.26888,1.59445 0.80641,2.26579 0.53761,0.69533 1.38063,1.27081 2.52917,1.72634 0.65975,0.23997 2.60253,0.79114 5.82815,1.65446 4.6674,1.22276 7.91746,2.22983 9.75019,3.02106 1.85717,0.76723 3.31115,1.89415 4.36195,3.3807 1.05076,1.48656 1.57612,3.3328 1.57612,5.53868 0,2.1579 -0.64753,4.19595 -1.94269,6.11408 -1.27068,1.8942 -3.11562,3.36876 -5.53489,4.42372 -2.41922,1.03108 -5.15609,1.54655 -8.21068,1.54655 -5.05835,0 -8.91934,-1.03096 -11.58295,-3.093 -2.63918,-2.06204 -4.32531,-5.11906 -5.0584,-9.17118 z m 40.21045,-33.87933 v -7.44478 h 6.59783 v 7.44478 z m 0,45.28034 v -38.19518 h 6.59783 v 38.19518 z m 16.64133,0 v -38.19518 h 5.9381 v 5.43078 c 2.8591,-4.19593 6.9889,-6.29391 12.3894,-6.29391 2.3458,0 4.4964,0.4195 6.4513,1.25876 1.9793,0.81524 3.4578,1.8942 4.4352,3.23691 0.9774,1.34267 1.6617,2.93712 2.0527,4.78336 0.2443,1.19886 0.3665,3.29686 0.3665,6.29392 v 23.48536 h -6.5979 v -23.23357 c 0,-2.63748 -0.2571,-4.60356 -0.7698,-5.89833 -0.5131,-1.31872 -1.4294,-2.36169 -2.749,-3.12896 -1.2953,-0.79123 -2.8225,-1.18687 -4.582,-1.18687 -2.8102,0 -5.2416,0.87513 -7.2943,2.62548 -2.0282,1.7503 -3.0423,5.0711 -3.0423,9.96237 v 20.85988 z m 39.2941,-19.09754 c 0,-7.0732 2.0038,-12.31215 6.0115,-15.71685 3.3478,-2.82931 7.4286,-4.24392 12.2427,-4.24392 5.3515,0 9.7257,1.7263 13.1225,5.17899 3.3966,3.42867 5.0949,8.17612 5.0949,14.24229 0,4.91521 -0.7575,8.78745 -2.2726,11.61677 -1.4906,2.80526 -3.6776,4.98716 -6.5612,6.54566 -2.859,1.5585 -5.9869,2.33777 -9.3836,2.33777 -5.4494,0 -9.8602,-1.71434 -13.2324,-5.1431 -3.3479,-3.42865 -5.0218,-8.36789 -5.0218,-14.81761 z m 6.7812,0 c 0,4.89126 1.0875,8.55969 3.2623,11.00534 2.1749,2.42167 4.9117,3.63249 8.2107,3.63249 3.2745,0 5.9992,-1.22282 8.174,-3.66845 2.1749,-2.44568 3.2623,-6.17408 3.2623,-11.18522 0,-4.72347 -1.0996,-8.29596 -3.2989,-10.71764 -2.1749,-2.44568 -4.8874,-3.6685 -8.1374,-3.6685 -3.299,0 -6.0358,1.21082 -8.2107,3.63249 -2.1748,2.42168 -3.2623,6.07819 -3.2623,10.96949 z" /></svg>
